<svg xmlns="http://www.w3.org/2000/svg" viewBox="0 0 260 160"><g fill="none" stroke-width="2"><path stroke="#f7f7f7" d="m20.2 0-.15 19.53q-.01.47.47.47h18.73a.75.75 0 0 1 .75.75V39.5q0 .5.5.5h18.75a.75.75 0 0 1 .75.75V59.5q0 .5.5.5h18.75a.75.75 0 0 0 .75-.75V40.78a.78.78 0 0 0-.78-.78H60.76q-.8 0-.8-.8l.12-18.38a.82.81.3 0 0-.82-.82H40.51q-.52 0-.52-.52L39.95 0M60.17 0l-.12 19.6q-.01.54.53.53l18.64-.12q.7-.01.7-.71L79.9 0M100.14 0l-.16 19.46q-.01.54.53.54h18.75a.66.66 0 0 0 .66-.66L119.9 0M140.14 0l-.16 19.46q-.01.54.53.54h18.75a.66.66 0 0 0 .66-.66L159.9 0M180.14 0l-.16 19.46q-.01.54.53.54h18.75a.66.66 0 0 0 .66-.66L199.9 0M220.14 0l-.18 19.45q0 .55.55.55h18.76a.62.62 0 0 0 .62-.62V0M260 19.96l-18.97.03a1.03 1.03 0 0 0-1.03 1.03v18.46q0 .49.48.49l19.52-.04M260 59.99l-18.81-.15a1.18 1.18 0 0 0-1.19 1.18v17.74a1.21 1.21 0 0 0 1.22 1.21l18.78-.12M260 100l-19.01.01a.99.99 0 0 0-.99.99v18.48q0 .49.48.49l19.52-.04M260 140l-19 .01a.98.97-90 0 0-.97.98l.12 19.01M219.77 160l.21-19.22a.79.78 0 0 1 .79-.78h18.52a.72.72 0 0 0 .72-.72l-.05-18.68q0-.6-.61-.6h-18.2a1.11 1.11 0 0 0-1.11 1.1l-.12 18.07a.84.84 0 0 1-.84.83H201a.98.97 90 0 0-.97.98l.12 19.02M179.77 160l.21-19a1.02 1.01.3 0 1 1.02-1h18.35a.66.66 0 0 0 .66-.67l-.04-18.72q-.01-.61-.61-.61H181a1 1 0 0 0-1 1v18a1 1 0 0 1-1 1h-18a.97.97 0 0 0-.97.97l.12 19.03M139.78 160l.22-18.96a1.02 1.02 0 0 0-1.02-1.04H121a.98.97 90 0 0-.97.98l.12 19.02M99.73 160l.13-18.93A1.07 1.06-90 0 0 98.8 140H81a.97.97 0 0 0-.97.97l.12 19.03M59.76 160l.21-18.81a1.18 1.18 0 0 0-1.18-1.19h-17.8a.96.96 0 0 0-.96.96l.12 19.04M19.88 160q-.31-6.75.08-13.43c.08-1.22-.22-2.15-.46-3.35a.86.83-40.2 0 1 .05-.49q.56-1.27.03-2.24-.25-.46-.77-.45L0 140.2M0 119.82l18.94.14a.89.89 0 0 0 .89-.89l-.12-14.71a.75.74-73.8 0 0-.34-.63q-.57-.37-.29-1.1a.9.88-13.4 0 1 .17-.27q.84-.85.26-1.85-.26-.45-.77-.44L0 100.32M0 79.67l17.74.33a2.14 2.13.3 0 1 2.1 2.11l.2 17.28q.01.59.6.6l18.56.15a.81.81 0 0 1 .8.81v18.55q0 .5.5.5h18.54a.81.8.4 0 0 .81-.79l.21-18.14A1.06 1.06 0 0 0 59 100H40.5q-.56 0-.6-.56l-.73-9.95" vector-effect="non-scaling-stroke"/><path stroke="#a1ce9d" d="M39.17 89.49c8.58-11.41 7.84-24.7-.02-36.78" vector-effect="non-scaling-stroke"/><path stroke="#f7f7f7" d="m39.15 52.71.81-11.43a1.18 1.17 2.3 0 0-1.17-1.25l-17.35-.02a1.32 1.31-89.3 0 0-1.32 1.3L20 54.21q0 .54.54.58 1.53.12 1.75 1.65" vector-effect="non-scaling-stroke"/><path stroke="#a7d8a0" d="m22.29 56.44-1.28 3.73" vector-effect="non-scaling-stroke"/><path stroke="#f7f7f7" d="m21.01 60.17-19.89-.08q-.63 0-.68.62L0 66.21M0 39.66l19.12.27a.74.74 0 0 0 .75-.73l.21-18.63q.01-.52-.51-.52L.98 19.89a.72.71-84.8 0 0-.71.6L0 22.22M99.97 20.93a.93.93 0 0 0-.93-.93H80.92a.93.93 0 0 0-.93.93v18.14a.93.93 0 0 0 .93.93h18.12a.93.93 0 0 0 .93-.93V20.93M139.986 20.967a.94.94 0 0 0-.939-.941l-18.1-.032a.94.94 0 0 0-.941.939l-.032 18.12a.94.94 0 0 0 .939.941l18.1.032a.94.94 0 0 0 .941-.939l.032-18.12M179.966 20.927a.91.91 0 0 0-.909-.911l-18.14-.032a.91.91 0 0 0-.911.909l-.032 18.18a.91.91 0 0 0 .909.911l18.14.032a.91.91 0 0 0 .911-.909l.032-18.18M219.962 20.955a.91.91 0 0 0-.907-.913l-18.12-.064a.91.91 0 0 0-.913.907l-.064 18.18a.91.91 0 0 0 .907.913l18.12.064a.91.91 0 0 0 .913-.907l.064-18.18M119.984 40.603a.62.62 0 0 0-.621-.62l-18.76.033a.62.62 0 0 0-.62.622l.033 18.76a.62.62 0 0 0 .621.618l18.76-.032a.62.62 0 0 0 .62-.622l-.033-18.76M159.984 40.583a.59.59 0 0 0-.591-.59l-18.82.033a.59.59 0 0 0-.59.591l.033 18.82a.59.59 0 0 0 .591.59l18.82-.033a.59.59 0 0 0 .59-.591l-.033-18.82M200.016 40.837a.82.82 0 0 0-.819-.821l-18.36-.032a.82.82 0 0 0-.821.819l-.032 18.36a.82.82 0 0 0 .819.821l18.36.032a.82.82 0 0 0 .821-.819l.032-18.36M239.984 40.833a.85.85 0 0 0-.852-.849l-18.3.032a.85.85 0 0 0-.848.852l.032 18.3a.85.85 0 0 0 .852.848l18.3-.032a.85.85 0 0 0 .848-.852l-.032-18.3" vector-effect="non-scaling-stroke"/><path stroke="#e0dfde" d="M199.88 67.9c-6.39-3.11-13.45-2.15-20.18-2.15" vector-effect="non-scaling-stroke"/><path stroke="#f7f7f7" d="m179.7 65.75.33-4.4a1.26 1.25-87.9 0 0-1.25-1.35h-17.99q-.88 0-.89.88l-.29 15.56" vector-effect="non-scaling-stroke"/><path stroke="#a1a1a2" d="M159.61 76.44q-4.73 3.72-3.61 9.31.8 3.99 3.86 6.15" vector-effect="non-scaling-stroke"/><path stroke="#f7f7f7" d="m159.86 91.9.13 28.1M159.99 120h-18.98a1.02 1.01-90 0 0-1.01 1.02v18.36q0 .62.63.62h18.63a.67.67 0 0 0 .67-.67l.06-19.33M159.99 120l19.02-.01a.8.79.4 0 0 .8-.78l.26-18.75q.01-.46.47-.46h18.96a.5.5 0 0 1 .5.5v19q0 .5.5.5h18.54a.8.8 0 0 0 .8-.79l.22-18.04a1.15 1.15 0 0 0-1.15-1.17h-18.62a.46.46 0 0 1-.46-.44l-.32-9.7" vector-effect="non-scaling-stroke"/><path stroke="#e0dfde" d="M199.51 89.86q4.41-3.57 5.2-8.88" vector-effect="non-scaling-stroke"/><path stroke="#f7f7f7" d="M204.71 80.98q3.39-1.78 7-.59" vector-effect="non-scaling-stroke"/><path stroke="#e0dfde" d="m211.71 80.39-.25 8.99a.88.87 76.8 0 1-.47.76q-.95.49-1.97.62-.58.08-.8.33-.35.39-.21.9.15.51.68.52l11.3.14" vector-effect="non-scaling-stroke"/><path stroke="#f7f7f7" d="m219.99 92.65-.11 6.7a.65.64.4 0 0 .65.65h18.67q.35 0 .39-.36.9-9.48.13-18.98-.04-.54-.58-.53l-9.62.11" vector-effect="non-scaling-stroke"/><path stroke="#e0dfde" d="m229.52 80.24-4.22-2.74q-.49-.32.03-.59c4.56-2.38 4.4-7.86.08-10.3q-1.29-.73-5.77-.86" vector-effect="non-scaling-stroke"/><path stroke="#f7f7f7" d="M219.64 65.75q.72-2.72.17-5.26a.59.59 0 0 0-.56-.46l-17.97-.18a1.3 1.3 0 0 0-1.31 1.28l-.09 6.77" vector-effect="non-scaling-stroke"/><path stroke="#d7d7d6" d="m219.64 65.75-11.3.14a.54.54 0 0 0-.35.94q.99.86 2.35.91 1.26.04 1.27 1.3l.1 11.35M204.71 80.98q.98-8.5-4.83-13.08M229.52 80.24c3.68 7.32-3.08 12.03-9.53 12.41M179.7 65.75l-1.61.03a.87.87 0 0 0-.15 1.73l3.09.6q.61.12.59.75l-.8 20.6a.96.96 0 0 1-.52.8l-2.4 1.17a.49.49 0 0 0 .17.92c6.88.63 15.26 1.12 21.44-2.49" vector-effect="non-scaling-stroke"/><path stroke="#999" d="M159.86 91.9q8.02 3.18 12.37-2.73c1.87-2.53 2.17-7.32.52-10.16q-4.11-7.09-13.14-2.57" vector-effect="non-scaling-stroke"/><path stroke="#a1a1a2" d="M78.75 74.85q-4.26-.18-7.41 2.58a.52.51-38.1 0 1-.77-.09c-2.97-4.26-6.44-2.28-10.13-.06q-.59.35-.54-.34l.12-1.57q.05-.63-.56-.46l-5.71 1.61a.46.46 0 0 0-.03.88l2.05.75q.73.27.73 1.05v10.44a.83.82 78.8 0 1-.5.76l-2.05.89a.61.6 33.4 0 0 .24 1.16l6.28.02" vector-effect="non-scaling-stroke"/><path stroke="#f7f7f7" d="m60.47 92.47-.45 6.87q-.04.57.53.58l18.42.12q.6 0 .62-.6l.24-6.93" vector-effect="non-scaling-stroke"/><path stroke="#a1a1a2" d="m79.83 92.51 5.37-.07a.66.66 0 0 0 .16-1.29l-2.14-.56a.62.61 7.4 0 1-.46-.59l-.07-9.84" vector-effect="non-scaling-stroke"/><path stroke="#f7f7f7" d="m82.69 80.16 6.35.24" vector-effect="non-scaling-stroke"/><path stroke="#a1a1a2" d="M89.04 80.4c-4.02 14.59 15.74 17.09 17.48 4.1q1-7.51-6.79-9.72" vector-effect="non-scaling-stroke"/><path stroke="#f7f7f7" d="m99.73 74.78.23-14.29q.01-.49-.48-.49H80.72a.92.92 0 0 0-.91 1.03q1 7.7-1.06 13.82" vector-effect="non-scaling-stroke"/><path stroke="#999" d="M99.73 74.78q-7.58-.43-10.69 5.62M82.69 80.16q-.69-3.98-3.94-5.31M79.83 92.51l-2.78-.04q-.38-.01-.52-.37-.05-.12-.04-.26.01-.34.33-.46l1.92-.72a.76.75-9.8 0 0 .49-.69c.08-4.39 2.01-14.42-6.37-12.04a1.96 1.96 0 0 0-1.42 1.91l.09 10.18q0 .43.42.56l1.97.61a.67.66 53.5 0 1-.19 1.3l-8.24.01a.62.62 0 0 1-.18-1.22l1.78-.53q.58-.17.66-.77.73-5.44-.32-10.82a1.24 1.23-78.5 0 0-.5-.76q-3.42-2.4-6.74.46-.4.35-.4.88l.02 9.98a.72.72 0 0 0 .45.67l2.36.99a.55.55 0 0 1-.09 1.05q-1.18.26-2.06.04" vector-effect="non-scaling-stroke"/><path stroke="#a1a1a2" d="m120.53 75.19-3.06 1.86q-.53.33-.51-.3l.07-1.58q.02-.41-.38-.31l-5.81 1.46a.72.72 0 0 0-.09 1.36l1.98.77a.82.81-79.5 0 1 .52.76v10.68a.64.63 79.1 0 1-.39.59l-1.88.78a.78.77 33.6 0 0 .3 1.49h8.06q.63 0 .45-.6l-.23-.79q-.16-.55-.74-.58l-1.12-.06a.58.57-89.5 0 1-.55-.57l-.2-10.13q-.01-.64.49-1.02 3.64-2.74 6.9.4.52.5.53 1.22l.18 9.11q.02.82-.77 1.05l-1.52.43a.79.79 0 0 0 .22 1.55l8.16-.04a.73.73 0 0 0 .23-1.43l-2.16-.72a.62.61 8.6 0 1-.41-.55l-.34-10.78" vector-effect="non-scaling-stroke"/><path stroke="#f7f7f7" d="m128.46 79.24 7.13.99" vector-effect="non-scaling-stroke"/><path stroke="#a1a1a2" d="M135.59 80.23q-.59 5.39 3.58 6.84.85.3.11.8l-2.4 1.63a.8.8 0 0 0-.33.85q.33 1.44 1.73 1.88a.77.77 0 0 1 .16 1.4c-2.3 1.38-4.67 3.36-3.11 6.43" vector-effect="non-scaling-stroke"/><path stroke="#f7f7f7" d="M135.33 100.06q-.33.95-1.88.93-.09 0-.15-.07l-.37-.37q-.36-.36-.87-.37l-11.01-.25a1.02 1.02 0 0 0-1.05 1.02v18.55a.5.5 0 0 0 .5.5h18.53q.65 0 .65-.65l.11-16.18" vector-effect="non-scaling-stroke"/><path stroke="#a1a1a2" d="M139.79 103.17q7.81.7 11.59-4.34c1.75-2.34 1.73-6.51-1.16-7.78q-2.13-.93-7.95-1.19-1.62-.07-1.5-1.17a1.3 1.3 0 0 1 1.21-1.17q7.93-.58 7.79-8.52-.01-.74.73-.76 2.19-.03 2.46-2.35.06-.56-.49-.4l-2.53.75a1.23 1.2 50.1 0 1-.91-.09q-3.63-1.88-8.48-.95" vector-effect="non-scaling-stroke"/><path stroke="#f7f7f7" d="M140.55 75.2q-1.14-6.63-.31-13.86a1.2 1.2 0 0 0-1.19-1.34h-18.31q-.53 0-.58.53-.66 7.49.37 14.66" vector-effect="non-scaling-stroke"/><path stroke="#999" d="M140.55 75.2q-3.91 1.32-4.96 5.03M128.46 79.24q-2.01-5.82-7.93-4.05M139.79 103.17q-2.62-.71-4.46-3.11" vector-effect="non-scaling-stroke"/><path stroke="#f7f7f7" d="M99.972 100.955a.69.69 0 0 0-.688-.692l-18.56-.065a.69.69 0 0 0-.692.687l-.064 18.4a.69.69 0 0 0 .688.693l18.56.064a.69.69 0 0 0 .692-.687l.064-18.4M40.016 120.918a.9.9 0 0 0-.899-.902l-18.2-.032a.9.9 0 0 0-.901.899l-.032 18.2a.9.9 0 0 0 .899.901l18.2.032a.9.9 0 0 0 .901-.899l.032-18.2M80.006 120.737a.72.72 0 0 0-.719-.72l-18.56-.033a.72.72 0 0 0-.72.719l-.033 18.56a.72.72 0 0 0 .719.72l18.56.033a.72.72 0 0 0 .72-.719l.033-18.56M119.964 120.973a.99.99 0 0 0-.992-.989l-18 .032a.99.99 0 0 0-.988.991l.032 18.02a.99.99 0 0 0 .991.989l18-.032a.99.99 0 0 0 .989-.991l-.032-18.02" vector-effect="non-scaling-stroke"/><path stroke="#98c694" d="m39.15 52.71-3.61-4.26" vector-effect="non-scaling-stroke"/><path stroke="#9ecf98" d="m35.54 48.45-2.93-4.02q-.27-.38-.62-.06-5.85 5.39-9.7 12.07" vector-effect="non-scaling-stroke"/><path stroke="#48a73e" d="m35.54 48.45-2.13 1.1q-.44.23-.45.74l-.18 39.62" vector-effect="non-scaling-stroke"/><path stroke="#9ecf98" d="M32.78 89.91q-1.56 1.44-.93 3.81a.53.53 0 0 1-.84.55q-16.56-13.4-10-34.1" vector-effect="non-scaling-stroke"/><path stroke="#98c694" d="m39.17 89.49-4.21 4.05q-.46.44-.95.03-1.27-1.07-1.23-3.66" vector-effect="non-scaling-stroke"/><path stroke="#d7d7d6" d="M185.59 80.29q-.53 4.46.5 8.69a.97.95-88.5 0 0 .64.69q11.34 3.52 13.6-8.93" vector-effect="non-scaling-stroke"/><path stroke="#e0dfde" d="M200.33 80.74q-.07-14.32-14.13-12.87-.6.06-.6.66l-.01 11.76" vector-effect="non-scaling-stroke"/><path stroke="#f7f7f7" d="M200.33 80.74q-7.24-1.43-14.74-.45" vector-effect="non-scaling-stroke"/><path stroke="#e0dfde" d="M219.7 76.99c6.26.01 5.82-7.78.81-8.91" vector-effect="non-scaling-stroke"/><path stroke="#d7d7d6" d="m220.51 68.08-4.2-.29q-.38-.02-.38.35l.04 8.06q0 .5.47.63 1.49.43 3.26.16" vector-effect="non-scaling-stroke"/><path stroke="#f7f7f7" d="M220.51 68.08c-1.8 3.52.08 5.97-.81 8.91" vector-effect="non-scaling-stroke"/><path stroke="#d7d7d6" d="M219.59 90.78c8.86-.63 8.86-10.32.53-11.67" vector-effect="non-scaling-stroke"/><path stroke="#e0dfde" d="m220.12 79.11-3.44.16q-.47.02-.56.48-2.04 9.71 3.47 11.03" vector-effect="non-scaling-stroke"/><path stroke="#f7f7f7" d="M220.12 79.11q.69 6.07-.53 11.67" vector-effect="non-scaling-stroke"/><path stroke="#a1a1a2" d="M98.926 91.048a7.33 5.16 79.1 0 0 3.68-8.174 7.33 5.16 79.1 0 0-6.452-6.222 7.33 5.16 79.1 0 0-3.68 8.174 7.33 5.16 79.1 0 0 6.452 6.222M143.507 85.666a4.67 3.68 79.8 0 0 2.795-5.248 4.67 3.68 79.8 0 0-4.449-3.944 4.67 3.68 79.8 0 0-2.795 5.248 4.67 3.68 79.8 0 0 4.449 3.944" vector-effect="non-scaling-stroke"/><path stroke="#999" d="M149.52 97.21a5.76 3.88.6 0 0-5.72-3.94 5.76 3.88.6 0 0-5.8 3.82 5.76 3.88.6 0 0 5.72 3.94 5.76 3.88.6 0 0 5.8-3.82" vector-effect="non-scaling-stroke"/><path stroke="#a1a1a2" d="M166.368 91.049a7.29 5.13 78.3 0 0 3.545-8.18 7.29 5.13 78.3 0 0-6.501-6.097 7.29 5.13 78.3 0 0-3.545 8.178 7.29 5.13 78.3 0 0 6.501 6.099" vector-effect="non-scaling-stroke"/></g><path fill="#fff" d="M0 0h20.2l-.15 19.53q-.01.47.47.47h18.73a.75.75 0 0 1 .75.75V39.5q0 .5.5.5h18.75a.75.75 0 0 1 .75.75V59.5q0 .5.5.5h18.75a.75.75 0 0 0 .75-.75V40.78a.78.78 0 0 0-.78-.78H60.76q-.8 0-.8-.8l.12-18.38a.82.81.3 0 0-.82-.82H40.51q-.52 0-.52-.52L39.95 0h20.22l-.12 19.6q-.01.54.53.53l18.64-.12q.7-.01.7-.71L79.9 0h20.24l-.16 19.46q-.01.54.53.54h18.75a.66.66 0 0 0 .66-.66L119.9 0h20.24l-.16 19.46q-.01.54.53.54h18.75a.66.66 0 0 0 .66-.66L159.9 0h20.24l-.16 19.46q-.01.54.53.54h18.75a.66.66 0 0 0 .66-.66L199.9 0h20.24l-.18 19.45q0 .55.55.55h18.76a.62.62 0 0 0 .62-.62V0H260v19.96l-18.97.03a1.03 1.03 0 0 0-1.03 1.03v18.46q0 .49.48.49l19.52-.04v20.06l-18.81-.15a1.18 1.18 0 0 0-1.19 1.18v17.74a1.21 1.21 0 0 0 1.22 1.21l18.78-.12V100l-19.01.01a.99.99 0 0 0-.99.99v18.48q0 .49.48.49l19.52-.04V140l-19 .01a.98.97-90 0 0-.97.98l.12 19.01h-20.38l.21-19.22a.79.78 0 0 1 .79-.78h18.52a.72.72 0 0 0 .72-.72l-.05-18.68q0-.6-.61-.6h-18.2a1.11 1.11 0 0 0-1.11 1.1l-.12 18.07a.84.84 0 0 1-.84.83H201a.98.97 90 0 0-.97.98l.12 19.02h-20.38l.21-19a1.02 1.01.3 0 1 1.02-1h18.35a.66.66 0 0 0 .66-.67l-.04-18.72q-.01-.61-.61-.61H181a1 1 0 0 0-1 1v18a1 1 0 0 1-1 1h-18a.97.97 0 0 0-.97.97l.12 19.03h-20.37l.22-18.96a1.02 1.02 0 0 0-1.02-1.04H121a.98.97 90 0 0-.97.98l.12 19.02H99.73l.13-18.93A1.07 1.06-90 0 0 98.8 140H81a.97.97 0 0 0-.97.97l.12 19.03H59.76l.21-18.81a1.18 1.18 0 0 0-1.18-1.19h-17.8a.96.96 0 0 0-.96.96l.12 19.04H19.88q-.31-6.75.08-13.43c.08-1.22-.22-2.15-.46-3.35a.86.83-40.2 0 1 .05-.49q.56-1.27.03-2.24-.25-.46-.77-.45L0 140.2v-20.38l18.94.14a.89.89 0 0 0 .89-.89l-.12-14.71a.75.74-73.8 0 0-.34-.63q-.57-.37-.29-1.1a.9.88-13.4 0 1 .17-.27q.84-.85.26-1.85-.26-.45-.77-.44L0 100.32V79.67l17.74.33a2.14 2.13.3 0 1 2.1 2.11l.2 17.28q.01.59.6.6l18.56.15a.81.81 0 0 1 .8.81v18.55q0 .5.5.5h18.54a.81.8.4 0 0 .81-.79l.21-18.14A1.06 1.06 0 0 0 59 100H40.5q-.56 0-.6-.56l-.73-9.95c8.58-11.41 7.84-24.7-.02-36.78l.81-11.43a1.18 1.17 2.3 0 0-1.17-1.25l-17.35-.02a1.32 1.31-89.3 0 0-1.32 1.3L20 54.21q0 .54.54.58 1.53.12 1.75 1.65l-1.28 3.73-19.89-.08q-.63 0-.68.62L0 66.21V39.66l19.12.27a.74.74 0 0 0 .75-.73l.21-18.63q.01-.52-.51-.52L.98 19.89a.72.71-84.8 0 0-.71.6L0 22.22V0Zm99.97 20.93a.93.93 0 0 0-.93-.93H80.92a.93.93 0 0 0-.93.93v18.14a.93.93 0 0 0 .93.93h18.12a.93.93 0 0 0 .93-.93V20.93Zm40.016.037a.94.94 0 0 0-.939-.941l-18.1-.032a.94.94 0 0 0-.941.939l-.032 18.12a.94.94 0 0 0 .939.941l18.1.032a.94.94 0 0 0 .941-.939l.032-18.12Zm39.98-.04a.91.91 0 0 0-.909-.911l-18.14-.032a.91.91 0 0 0-.911.909l-.032 18.18a.91.91 0 0 0 .909.911l18.14.032a.91.91 0 0 0 .911-.909l.032-18.18Zm39.996.028a.91.91 0 0 0-.907-.913l-18.12-.064a.91.91 0 0 0-.913.907l-.064 18.18a.91.91 0 0 0 .907.913l18.12.064a.91.91 0 0 0 .913-.907l.064-18.18Zm-99.978 19.648a.62.62 0 0 0-.621-.62l-18.76.033a.62.62 0 0 0-.62.622l.033 18.76a.62.62 0 0 0 .621.618l18.76-.032a.62.62 0 0 0 .62-.622l-.033-18.76Zm40-.02a.59.59 0 0 0-.591-.59l-18.82.033a.59.59 0 0 0-.59.591l.033 18.82a.59.59 0 0 0 .591.59l18.82-.033a.59.59 0 0 0 .59-.591l-.033-18.82Zm40.032.255a.82.82 0 0 0-.819-.822l-18.36-.032a.82.82 0 0 0-.821.819l-.032 18.36a.82.82 0 0 0 .819.821l18.36.032a.82.82 0 0 0 .821-.819l.032-18.36Zm39.968-.005a.85.85 0 0 0-.852-.849l-18.3.032a.85.85 0 0 0-.848.852l.032 18.3a.85.85 0 0 0 .852.848l18.3-.032a.85.85 0 0 0 .848-.852l-.032-18.3ZM199.88 67.9c-6.39-3.11-13.45-2.15-20.18-2.15l.33-4.4a1.26 1.25-87.9 0 0-1.25-1.35h-17.99q-.88 0-.89.88l-.29 15.56q-4.73 3.72-3.61 9.31.8 3.99 3.86 6.15l.13 28.1h-18.98a1.02 1.01-90 0 0-1.01 1.02v18.36q0 .62.63.62h18.63a.67.67 0 0 0 .67-.67l.06-19.33 19.02-.01a.8.79.4 0 0 .8-.78l.26-18.75q.01-.46.47-.46h18.96a.5.5 0 0 1 .5.5v19q0 .5.5.5h18.54a.8.8 0 0 0 .8-.79l.22-18.04a1.15 1.15 0 0 0-1.15-1.17h-18.62a.46.46 0 0 1-.46-.44l-.32-9.7q4.41-3.57 5.2-8.88 3.39-1.78 7-.59l-.25 8.99a.88.87 76.8 0 1-.47.76q-.95.49-1.97.62-.58.08-.8.33-.35.39-.21.9.15.51.68.52l11.3.14-.11 6.7a.65.64.4 0 0 .65.65h18.67q.35 0 .39-.36.9-9.48.13-18.98-.04-.54-.58-.53l-9.62.11-4.22-2.74q-.49-.32.03-.59c4.56-2.38 4.4-7.86.08-10.3q-1.29-.73-5.77-.86.72-2.72.17-5.26a.59.59 0 0 0-.56-.46l-17.97-.18a1.3 1.3 0 0 0-1.31 1.28l-.09 6.77ZM78.75 74.85q-4.26-.18-7.41 2.58a.52.51-38.1 0 1-.77-.09c-2.97-4.26-6.44-2.28-10.13-.06q-.59.35-.54-.34l.12-1.57q.05-.63-.56-.46l-5.71 1.61a.46.46 0 0 0-.03.88l2.05.75q.73.27.73 1.05v10.44a.83.82 78.8 0 1-.5.76l-2.05.89a.61.6 33.4 0 0 .24 1.16l6.28.02-.45 6.87q-.04.57.53.58l18.42.12q.6 0 .62-.6l.24-6.93 5.37-.07a.66.66 0 0 0 .16-1.29l-2.14-.56a.62.61 7.4 0 1-.46-.59l-.07-9.84 6.35.24c-4.02 14.59 15.74 17.09 17.48 4.1q1-7.51-6.79-9.72l.23-14.29q.01-.49-.48-.49H80.72a.92.92 0 0 0-.91 1.03q1 7.7-1.06 13.82Zm41.78.34-3.06 1.86q-.53.33-.51-.3l.07-1.58q.02-.41-.38-.31l-5.81 1.46a.72.72 0 0 0-.09 1.36l1.98.77a.82.81-79.5 0 1 .52.76v10.68a.64.63 79.1 0 1-.39.59l-1.88.78a.78.77 33.6 0 0 .3 1.49h8.06q.63 0 .45-.6l-.23-.79q-.16-.55-.74-.58l-1.12-.06a.58.57-89.5 0 1-.55-.57l-.2-10.13q-.01-.64.49-1.02 3.64-2.74 6.9.4.52.5.53 1.22l.18 9.11q.02.82-.77 1.05l-1.52.43a.79.79 0 0 0 .22 1.55l8.16-.04a.73.73 0 0 0 .23-1.43l-2.16-.72a.62.61 8.6 0 1-.41-.55l-.34-10.78 7.13.99q-.59 5.39 3.58 6.84.85.3.11.8l-2.4 1.63a.8.8 0 0 0-.33.85q.33 1.44 1.73 1.88a.77.77 0 0 1 .16 1.4c-2.3 1.38-4.67 3.36-3.11 6.43q-.33.95-1.88.93-.09 0-.15-.07l-.37-.37q-.36-.36-.87-.37l-11.01-.25a1.02 1.02 0 0 0-1.05 1.02v18.55a.5.5 0 0 0 .5.5h18.53q.65 0 .65-.65l.11-16.18q7.81.7 11.59-4.34c1.75-2.34 1.73-6.51-1.16-7.78q-2.13-.93-7.95-1.19-1.62-.07-1.5-1.17a1.3 1.3 0 0 1 1.21-1.17q7.93-.58 7.79-8.52-.01-.74.73-.76 2.19-.03 2.46-2.35.06-.56-.49-.4l-2.53.75a1.23 1.2 50.1 0 1-.91-.09q-3.63-1.88-8.48-.95-1.14-6.63-.31-13.86a1.2 1.2 0 0 0-1.19-1.34h-18.31q-.53 0-.58.53-.66 7.49.37 14.66Zm-20.558 25.765a.69.69 0 0 0-.688-.692l-18.56-.065a.69.69 0 0 0-.692.687l-.064 18.4a.69.69 0 0 0 .688.693l18.56.064a.69.69 0 0 0 .692-.687l.064-18.4Zm-59.956 19.963a.9.9 0 0 0-.899-.902l-18.2-.032a.9.9 0 0 0-.901.899l-.032 18.2a.9.9 0 0 0 .899.901l18.2.032a.9.9 0 0 0 .901-.899l.032-18.2Zm39.99-.18a.72.72 0 0 0-.719-.722l-18.56-.032a.72.72 0 0 0-.72.719l-.033 18.56a.72.72 0 0 0 .719.72l18.56.033a.72.72 0 0 0 .72-.719l.033-18.56Zm39.958.235a.99.99 0 0 0-.992-.989l-18 .032a.99.99 0 0 0-.988.991l.032 18.02a.99.99 0 0 0 .991.989l18-.032a.99.99 0 0 0 .989-.991l-.032-18.02Z"/><path fill="#eee" d="M20.2 0h19.75l.04 19.48q0 .52.52.52h18.75a.82.81.3 0 1 .82.82l-.12 18.38q0 .8.8.8h18.46a.78.78 0 0 1 .78.78v18.47a.75.75 0 0 1-.75.75H60.5q-.5 0-.5-.5V40.75a.75.75 0 0 0-.75-.75H40.5q-.5 0-.5-.5V20.75a.75.75 0 0 0-.75-.75H20.52q-.48 0-.47-.47L20.2 0ZM60.17 0H79.9l.02 19.3q0 .7-.7.71l-18.64.12q-.54.01-.53-.53L60.17 0ZM100.14 0h19.76l.02 19.34a.66.66 0 0 1-.66.66h-18.75q-.54 0-.53-.54L100.14 0ZM140.14 0h19.76l.02 19.34a.66.66 0 0 1-.66.66h-18.75q-.54 0-.53-.54L140.14 0ZM180.14 0h19.76l.02 19.34a.66.66 0 0 1-.66.66h-18.75q-.54 0-.53-.54L180.14 0ZM220.14 0h19.75v19.38a.62.62 0 0 1-.62.62h-18.76q-.55 0-.55-.55L220.14 0Z"/><path fill="#eee" d="M0 39.66V22.22l.27-1.73a.72.71-84.8 0 1 .71-.6l18.59.16q.52 0 .51.52l-.21 18.63a.74.74 0 0 1-.75.73L0 39.66ZM260 19.96v19.97l-19.52.04q-.48 0-.48-.49V21.02a1.03 1.03 0 0 1 1.03-1.03l18.97-.03Z"/><rect width="19.98" height="20" x="79.99" y="20" fill="#eee" rx=".93"/><rect width="19.98" height="20" x="-9.99" y="-10" fill="#eee" rx=".94" transform="rotate(.1 -17129.47 74488.04)"/><rect width="19.96" height="20" x="-9.98" y="-10" fill="#eee" rx=".91" transform="rotate(.1 -17103.744 97400.612)"/><rect width="19.94" height="20" x="-9.97" y="-10" fill="#eee" rx=".91" transform="rotate(.2 -8492.243 60164.053)"/><path fill="#eee" d="m39.15 52.71-3.61-4.26-2.93-4.02q-.27-.38-.62-.06-5.85 5.39-9.7 12.07-.22-1.53-1.75-1.65-.54-.04-.54-.58l.12-12.9a1.32 1.31-89.3 0 1 1.32-1.3l17.35.02a1.18 1.17 2.3 0 1 1.17 1.25l-.81 11.43Z"/><rect width="20" height="20" x="-10" y="-10" fill="#eee" rx=".62" transform="rotate(-.1 28702.882 -63000.341)"/><rect width="20" height="20" x="-10" y="-10" fill="#eee" rx=".59" transform="rotate(-.1 28728.612 -85918.642)"/><rect width="20" height="20" x="-10" y="-10" fill="#eee" rx=".82" transform="rotate(.1 -28552.882 108886.953)"/><rect width="20" height="20" x="-10" y="-10" fill="#eee" rx=".85" transform="rotate(-.1 28762.882 -131755.26)"/><path fill="#4eb041" d="m35.54 48.45-2.13 1.1q-.44.23-.45.74l-.18 39.62q-1.56 1.44-.93 3.81a.53.53 0 0 1-.84.55q-16.56-13.4-10-34.1l1.28-3.73q3.85-6.68 9.7-12.07.35-.32.62.06l2.93 4.02Z"/><path fill="#429d3a" d="m35.54 48.45 3.61 4.26c7.86 12.08 8.6 25.37.02 36.78l-4.21 4.05q-.46.44-.95.03-1.27-1.07-1.23-3.66l.18-39.62q.01-.51.45-.74l2.13-1.1Z"/><path fill="#eee" d="m219.64 65.75-11.3.14a.54.54 0 0 0-.35.94q.99.86 2.35.91 1.26.04 1.27 1.3l.1 11.35q-3.61-1.19-7 .59.98-8.5-4.83-13.08l.09-6.77a1.3 1.3 0 0 1 1.31-1.28l17.97.18a.59.59 0 0 1 .56.46q.55 2.54-.17 5.26ZM260 59.99v19.86l-18.78.12a1.21 1.21 0 0 1-1.22-1.21V61.02a1.18 1.18 0 0 1 1.19-1.18l18.81.15ZM21.01 60.17q-6.56 20.7 10 34.1a.53.53 0 0 0 .84-.55q-.63-2.37.93-3.81-.04 2.59 1.23 3.66.49.41.95-.03l4.21-4.05.73 9.95q.04.56.6.56H59a1.06 1.06 0 0 1 1.06 1.07l-.21 18.14a.81.8.4 0 1-.81.79H40.5q-.5 0-.5-.5v-18.55a.81.81 0 0 0-.8-.81l-18.56-.15q-.59-.01-.6-.6l-.2-17.28a2.14 2.13.3 0 0-2.1-2.11L0 79.67V66.21l.44-5.5q.05-.62.68-.62l19.89.08ZM99.73 74.78q-7.58-.43-10.69 5.62l-6.35-.24q-.69-3.98-3.94-5.31 2.06-6.12 1.06-13.82a.92.92 0 0 1 .91-1.03h18.76q.49 0 .48.49l-.23 14.29ZM140.55 75.2q-3.91 1.32-4.96 5.03l-7.13-.99q-2.01-5.82-7.93-4.05-1.03-7.17-.37-14.66.05-.53.58-.53h18.31a1.2 1.2 0 0 1 1.19 1.34q-.83 7.23.31 13.86ZM179.7 65.75l-1.61.03a.87.87 0 0 0-.15 1.73l3.09.6q.61.12.59.75l-.8 20.6a.96.96 0 0 1-.52.8l-2.4 1.17a.49.49 0 0 0 .17.92c6.88.63 15.26 1.12 21.44-2.49l.32 9.7a.46.46 0 0 0 .46.44h18.62a1.15 1.15 0 0 1 1.15 1.17l-.22 18.04a.8.8 0 0 1-.8.79H200.5q-.5 0-.5-.5v-19a.5.5 0 0 0-.5-.5h-18.96q-.46 0-.47.46l-.26 18.75a.8.79.4 0 1-.8.78l-19.02.01-.13-28.1q8.02 3.18 12.37-2.73c1.87-2.53 2.17-7.32.52-10.16q-4.11-7.09-13.14-2.57l.29-15.56q.01-.88.89-.88h17.99a1.26 1.25-87.9 0 1 1.25 1.35l-.33 4.4Z"/><path fill="#c0bfbd" d="M179.7 65.75c6.73 0 13.79-.96 20.18 2.15q5.81 4.58 4.83 13.08-.79 5.31-5.2 8.88c-6.18 3.61-14.56 3.12-21.44 2.49a.49.49 0 0 1-.17-.92l2.4-1.17a.96.96 0 0 0 .52-.8l.8-20.6q.02-.63-.59-.75l-3.09-.6a.87.87 0 0 1 .15-1.73l1.61-.03Zm5.89 14.54q-.53 4.46.5 8.69a.97.95-88.5 0 0 .64.69q11.34 3.52 13.6-8.93-.07-14.32-14.13-12.87-.6.06-.6.66l-.01 11.76ZM219.64 65.75q4.48.13 5.77.86c4.32 2.44 4.48 7.92-.08 10.3q-.52.27-.03.59l4.22 2.74c3.68 7.32-3.08 12.03-9.53 12.41l-11.3-.14q-.53-.01-.68-.52-.14-.51.21-.9.22-.25.8-.33 1.02-.13 1.97-.62a.88.87 76.8 0 0 .47-.76l.25-8.99-.1-11.35q-.01-1.26-1.27-1.3-1.36-.05-2.35-.91a.54.54 0 0 1 .35-.94l11.3-.14Zm.06 11.24c6.26.01 5.82-7.78.81-8.91l-4.2-.29q-.38-.02-.38.35l.04 8.06q0 .5.47.63 1.49.43 3.26.16Zm-.11 13.79c8.86-.63 8.86-10.32.53-11.67l-3.44.16q-.47.02-.56.48-2.04 9.71 3.47 11.03Z"/><path fill="#fff" d="M200.33 80.74q-7.24-1.43-14.74-.45l.01-11.76q0-.6.6-.66 14.06-1.45 14.13 12.87Z"/><path fill="#eee" d="M220.51 68.08c-1.8 3.52.08 5.97-.81 8.91q-1.77.27-3.26-.16-.47-.13-.47-.63l-.04-8.06q0-.37.38-.35l4.2.29Z"/><path fill="#fff" d="M220.51 68.08c5.01 1.13 5.45 8.92-.81 8.91.89-2.94-.99-5.39.81-8.91Z"/><path fill="#434344" d="M78.75 74.85q3.25 1.33 3.94 5.31l.07 9.84a.62.61 7.4 0 0 .46.59l2.14.56a.66.66 0 0 1-.16 1.29l-5.37.07-2.78-.04q-.38-.01-.52-.37-.05-.12-.04-.26.01-.34.33-.46l1.92-.72a.76.75-9.8 0 0 .49-.69c.08-4.39 2.01-14.42-6.37-12.04a1.96 1.96 0 0 0-1.42 1.91l.09 10.18q0 .43.42.56l1.97.61a.67.66 53.5 0 1-.19 1.3l-8.24.01a.62.62 0 0 1-.18-1.22l1.78-.53q.58-.17.66-.77.73-5.44-.32-10.82a1.24 1.23-78.5 0 0-.5-.76q-3.42-2.4-6.74.46-.4.35-.4.88l.02 9.98a.72.72 0 0 0 .45.67l2.36.99a.55.55 0 0 1-.09 1.05q-1.18.26-2.06.04l-6.28-.02a.61.6 33.4 0 1-.24-1.16L56 90.4a.83.82 78.8 0 0 .5-.76V79.2q0-.78-.73-1.05l-2.05-.75a.46.46 0 0 1 .03-.88l5.71-1.61q.61-.17.56.46l-.12 1.57q-.05.69.54.34c3.69-2.22 7.16-4.2 10.13.06a.52.51-38.1 0 0 .77.09q3.15-2.76 7.41-2.58ZM99.73 74.78q7.79 2.21 6.79 9.72c-1.74 12.99-21.5 10.49-17.48-4.1q3.11-6.05 10.69-5.62Zm-.804 16.268a7.33 5.16 79.1 0 0 3.68-8.174 7.33 5.16 79.1 0 0-6.452-6.222 7.33 5.16 79.1 0 0-3.68 8.174 7.33 5.16 79.1 0 0 6.452 6.222ZM120.53 75.19q5.92-1.77 7.93 4.05l.34 10.78a.62.61 8.6 0 0 .41.55l2.16.72a.73.73 0 0 1-.23 1.43l-8.16.04a.79.79 0 0 1-.22-1.55l1.52-.43q.79-.23.77-1.05l-.18-9.11q-.01-.72-.53-1.22-3.26-3.14-6.9-.4-.5.38-.49 1.02l.2 10.13a.58.57-89.5 0 0 .55.57l1.12.06q.58.03.74.58l.23.79q.18.6-.45.6h-8.06a.78.77 33.6 0 1-.3-1.49l1.88-.78a.64.63 79.1 0 0 .39-.59V79.21a.82.81-79.5 0 0-.52-.76l-1.98-.77a.72.72 0 0 1 .09-1.36l5.81-1.46q.4-.1.38.31l-.07 1.58q-.02.63.51.3l3.06-1.86ZM139.79 103.17q-2.62-.71-4.46-3.11c-1.56-3.07.81-5.05 3.11-6.43a.77.77 0 0 0-.16-1.4q-1.4-.44-1.73-1.88a.8.8 0 0 1 .33-.85l2.4-1.63q.74-.5-.11-.8-4.17-1.45-3.58-6.84 1.05-3.71 4.96-5.03 4.85-.93 8.48.95a1.23 1.2 50.1 0 0 .91.09l2.53-.75q.55-.16.49.4-.27 2.32-2.46 2.35-.74.02-.73.76.14 7.94-7.79 8.52a1.3 1.3 0 0 0-1.21 1.17q-.12 1.1 1.5 1.17 5.82.26 7.95 1.19c2.89 1.27 2.91 5.44 1.16 7.78q-3.78 5.04-11.59 4.34Zm3.717-17.504a4.67 3.68 79.8 0 0 2.795-5.248 4.67 3.68 79.8 0 0-4.449-3.944 4.67 3.68 79.8 0 0-2.795 5.248 4.67 3.68 79.8 0 0 4.449 3.944Zm6.013 11.544a5.76 3.88.6 0 0-5.72-3.94 5.76 3.88.6 0 0-5.8 3.82 5.76 3.88.6 0 0 5.72 3.94 5.76 3.88.6 0 0 5.8-3.82ZM159.86 91.9q-3.06-2.16-3.86-6.15-1.12-5.59 3.61-9.31 9.03-4.52 13.14 2.57c1.65 2.84 1.35 7.63-.52 10.16q-4.35 5.91-12.37 2.73Zm6.508-.852a7.29 5.13 78.3 0 0 3.545-8.178 7.29 5.13 78.3 0 0-6.501-6.099 7.29 5.13 78.3 0 0-3.545 8.18 7.29 5.13 78.3 0 0 6.501 6.098Z"/><ellipse fill="#fff" rx="4.67" ry="3.68" transform="rotate(79.8 22.86 125.857)"/><ellipse fill="#fff" rx="7.33" ry="5.16" transform="rotate(79.1 -1.999 100.983)"/><ellipse fill="#fff" rx="7.29" ry="5.13" transform="rotate(78.3 30.911 143.223)"/><path fill="#eee" d="m79.83 92.51-.24 6.93q-.02.6-.62.6l-18.42-.12q-.57-.01-.53-.58l.45-6.87q.88.22 2.06-.04a.55.55 0 0 0 .09-1.05l-2.36-.99a.72.72 0 0 1-.45-.67l-.02-9.98q0-.53.4-.88 3.32-2.86 6.74-.46a1.24 1.23-78.5 0 1 .5.76q1.05 5.38.32 10.82-.08.6-.66.77l-1.78.53a.62.62 0 0 0 .18 1.22l8.24-.01a.67.66 53.5 0 0 .19-1.3l-1.97-.61q-.42-.13-.42-.56l-.09-10.18a1.96 1.96 0 0 1 1.42-1.91c8.38-2.38 6.45 7.65 6.37 12.04a.76.75-9.8 0 1-.49.69l-1.92.72q-.32.12-.33.46-.01.14.04.26.14.36.52.37l2.78.04Z"/><path fill="#fff" d="M220.12 79.11q.69 6.07-.53 11.67-5.51-1.32-3.47-11.03.09-.46.56-.48l3.44-.16Z"/><path fill="#eee" d="M220.12 79.11c8.33 1.35 8.33 11.04-.53 11.67q1.22-5.6.53-11.67ZM200.33 80.74q-2.26 12.45-13.6 8.93a.97.95-88.5 0 1-.64-.69q-1.03-4.23-.5-8.69 7.5-.98 14.74.45Z"/><path fill="#eee" d="M219.99 92.65c6.45-.38 13.21-5.09 9.53-12.41l9.62-.11q.54-.01.58.53.77 9.5-.13 18.98-.04.36-.39.36h-18.67a.65.64.4 0 1-.65-.65l.11-6.7Z"/><ellipse fill="#eee" rx="5.76" ry="3.88" transform="rotate(.6 -9205.177 13776.518)"/><path fill="#eee" d="M260 100v19.93l-19.52.04q-.48 0-.48-.49V101a.99.99 0 0 1 .99-.99L260 100ZM0 119.82v-19.5l18.74-.25q.51-.01.77.44.58 1-.26 1.85a.9.88-13.4 0 0-.17.27q-.28.73.29 1.1a.75.74-73.8 0 1 .34.63l.12 14.71a.89.89 0 0 1-.89.89L0 119.82Z"/><rect width="19.94" height="19.78" x="-9.97" y="-9.89" fill="#eee" rx=".69" transform="rotate(.2 -31502.04 25829.54)"/><path fill="#eee" d="M135.33 100.06q1.84 2.4 4.46 3.11l-.11 16.18q0 .65-.65.65H120.5a.5.5 0 0 1-.5-.5v-18.55a1.02 1.02 0 0 1 1.05-1.02l11.01.25q.51.01.87.37l.37.37q.06.07.15.07 1.55.02 1.88-.93Z"/><rect width="20" height="20" x="-10" y="-10" fill="#eee" rx=".9" transform="rotate(.1 -74469.494 17253.73)"/><rect width="20" height="20" x="-10" y="-10" fill="#eee" rx=".72" transform="rotate(.1 -74449.5 40166.306)"/><rect width="19.98" height="20" x="-9.99" y="-10" fill="#eee" rx=".99" transform="rotate(-.1 74539.49 -62954.612)"/><path fill="#eee" d="m159.99 120-.06 19.33a.67.67 0 0 1-.67.67h-18.63q-.63 0-.63-.62v-18.36a1.02 1.01 90 0 1 1.01-1.02h18.98ZM179.77 160h-19.62l-.12-19.03a.97.97 0 0 1 .97-.97h18a1 1 0 0 0 1-1v-18a1 1 0 0 1 1-1h18.36q.6 0 .61.61l.04 18.72a.66.66 0 0 1-.66.67H181a1.02 1.01.3 0 0-1.02 1l-.21 19ZM219.77 160h-19.62l-.12-19.02a.98.97-90 0 1 .97-.98h18.08a.84.84 0 0 0 .84-.83l.12-18.07a1.11 1.11 0 0 1 1.11-1.1h18.2q.61 0 .61.6l.05 18.68a.72.72 0 0 1-.72.72h-18.52a.79.78 0 0 0-.79.78l-.21 19.22ZM19.88 160H0v-19.8l18.81-.16q.52-.01.77.45.53.97-.03 2.24a.86.83-40.2 0 0-.05.49c.24 1.2.54 2.13.46 3.35q-.39 6.68-.08 13.43ZM260 140v20h-19.85l-.12-19.01a.98.97-90 0 1 .97-.98l19-.01ZM59.76 160H40.15l-.12-19.04a.96.96 0 0 1 .96-.96h17.8a1.18 1.18 0 0 1 1.18 1.19L59.76 160ZM99.73 160H80.15l-.12-19.03A.97.97 0 0 1 81 140h17.8a1.07 1.06-90 0 1 1.06 1.07L99.73 160ZM139.78 160h-19.63l-.12-19.02a.98.97-90 0 1 .97-.98h17.98a1.02 1.02 0 0 1 1.02 1.04l-.22 18.96Z"/></svg>