<svg xmlns="http://www.w3.org/2000/svg" viewBox="0 0 300 300"><g fill="none" stroke-width="2"><path stroke="#dfe0e1" d="M132.93 19.37q-15.32 4.98-29.7 12.03" vector-effect="non-scaling-stroke"/><path stroke="#c7cacd" d="M103.23 31.4q-6.53 3.22-11.28 7.77" vector-effect="non-scaling-stroke"/><path stroke="#e38f92" d="M91.95 39.17q-.67 2.75 1.25 4.63 8.56 8.4 17.09 17.03" vector-effect="non-scaling-stroke"/><path stroke="#f49192" d="M110.29 60.83c15.51 19.31 11.37 42.6-2.44 61.19" vector-effect="non-scaling-stroke"/><path stroke="#e38f92" d="M107.85 122.02q-14.07 18.15-32.71 32.59" vector-effect="non-scaling-stroke"/><path stroke="#c7cacd" d="M75.14 154.61c-5.91 4.74-17 17.35-14.36 25.39 9.32 28.36 61.92 33.97 86.97 35.02q.77.03 1.74-.75" vector-effect="non-scaling-stroke"/><path stroke="#dfe0e1" d="M149.49 214.27q7.8-14.5 13.25-30.26" vector-effect="non-scaling-stroke"/><path stroke="#efeff0" d="M162.74 184.01c7.2-19.88 9.82-45.65 6.19-66.76q-.11-.69-.79-.52l-3.11.77q-.57.14-.52.72l1.08 13.87q.08 1.08-.86.53-7.6-4.44-15.1-9.18-1.06-.67-2-.7a1.17 1.17 0 0 0-.59 2.19l17.43 9.51a.52.52 0 0 1 .03.89q-11.14 7.29-23.45 12.41a.34.34 0 0 1-.46-.41q3.42-11.75 3.39-24.42" vector-effect="non-scaling-stroke"/><path stroke="#f49192" d="M143.98 122.91q21.57-7.42 43.47-13.33" vector-effect="non-scaling-stroke"/><path stroke="#e38f92" d="m187.45 109.58 19.33-4.99" vector-effect="non-scaling-stroke"/><path stroke="#d18e90" d="m206.78 104.59 33.03-6.63q.51-.11.23-.55-14.96-23.53-41.89-32.65" vector-effect="non-scaling-stroke"/><path stroke="#e38f92" d="M198.15 64.76c-15.31-6.1-31.39-9.12-48.27-11.72" vector-effect="non-scaling-stroke"/><path stroke="#efeff0" d="M149.88 53.04q-9.68-15.71-14.89-33-.25-.82-.67-.98-.57-.21-1.39.31" vector-effect="non-scaling-stroke"/><path stroke="#d37f82" d="m149.88 53.04-6.89-.97" vector-effect="non-scaling-stroke"/><path stroke="#efeff0" d="m142.99 52.07.57-.08a.74.74 0 0 0 .55-1.06l-4.21-8.4a.56.56 0 0 0-.83-.2l-9.97 7.38" vector-effect="non-scaling-stroke"/><path stroke="#d37f82" d="m129.1 49.71-8.58-1.15" vector-effect="non-scaling-stroke"/><path stroke="#cfd0d2" d="M120.52 48.56q-.49-.86-.09-.74" vector-effect="non-scaling-stroke"/><path stroke="#efeff0" d="M120.43 47.82c4.99.9 12.84-4.74 17.47-7.09q.88-.45-.1-.58l-6.53-.83" vector-effect="non-scaling-stroke"/><path stroke="#cfd0d2" d="M131.27 39.32q1.47-.65 1.21-2.79" vector-effect="non-scaling-stroke"/><path stroke="#efeff0" d="m132.48 36.53 4.73.96q.64.13.41-.49-2.82-7.67-4.11-15.66-.08-.53-1.04-.04" vector-effect="non-scaling-stroke"/><path stroke="#cfd0d2" d="M132.47 21.3q.76-1.1.46-1.93" vector-effect="non-scaling-stroke"/><path stroke="#e38f92" d="m129.1 49.71 13.89 2.36" vector-effect="non-scaling-stroke"/><path stroke="#b51d23" d="M198.15 64.76q-2.01.18-1.65 2.54c.31 1.96 1.59 2.19 3.42 2.41q1.39.17 1.32 1.56" vector-effect="non-scaling-stroke"/><path stroke="#e38f92" d="M201.24 71.27q-12.4-5.19-25.41-8.39-.5-.12-.56.4-.95 9.08-4.67 17.54" vector-effect="non-scaling-stroke"/><path stroke="#d82125" d="M170.6 80.82q.15-1.53-.67-2.29-.4-.36-.93-.29l-1.64.21" vector-effect="non-scaling-stroke"/><path stroke="#e38f92" d="M167.36 78.45q3.6-6.85 5.43-14.47.42-1.8-1.18-.89l-5.23 2.95" vector-effect="non-scaling-stroke"/><path stroke="#d82125" d="m166.38 66.04-1.42-2.51" vector-effect="non-scaling-stroke"/><path stroke="#e38f92" d="m164.96 63.53 3.71-1.85q1.06-.53-.1-.74l-25.71-4.72q-.52-.09-.6.43-.09.55.31.77" vector-effect="non-scaling-stroke"/><path stroke="#d82125" d="M142.57 57.42q-.93.6-1.5.59-.58 0-.41-.56.42-1.32-.61-.74" vector-effect="non-scaling-stroke"/><path stroke="#e38f92" d="M140.05 56.71q-.31-1.29-2.52.86" vector-effect="non-scaling-stroke"/><path stroke="#d82125" d="m137.53 57.57-.3-2.8q-.05-.45-.51-.46-1.22 0-2.39.59" vector-effect="non-scaling-stroke"/><path stroke="#e38f92" d="m134.33 54.9-19.1-3.64q-.66-.12-.4.5l1.81 4.19" vector-effect="non-scaling-stroke"/><path stroke="#d82125" d="M116.64 55.95q-1.05 1-2.37 1" vector-effect="non-scaling-stroke"/><path stroke="#e38f92" d="m114.27 56.95-2.03-5.96q-.17-.51-.7-.65l-10-2.65a.2.2 0 0 0-.17.36q6.26 4.7 10.87 10.85" vector-effect="non-scaling-stroke"/><path stroke="#d82125" d="M112.24 58.9q-.97 2.14-1.95 1.93" vector-effect="non-scaling-stroke"/><path stroke="#dfe0e1" d="M132.47 21.3q-12.22 4.62-23.8 10.68a.33.33 0 0 0 .1.61l23.71 3.94M131.27 39.32q-12.45-1.29-24.29-4.79-.48-.15-.12.2l13.57 13.09" vector-effect="non-scaling-stroke"/><path stroke="#c36f74" d="m120.52 48.56-6.89-1.52" vector-effect="non-scaling-stroke"/><path stroke="#dfe0e1" d="m113.63 47.04-9.56-12.01" vector-effect="non-scaling-stroke"/><path stroke="#a7abaf" d="M104.07 35.03q.58-1.46.7-2.78.08-.87-1.54-.85" vector-effect="non-scaling-stroke"/><path stroke="#e38f92" d="m113.63 47.04-16.6-3.87" vector-effect="non-scaling-stroke"/><path stroke="#f49192" d="M137.53 57.57q-7.42 5.38-13.71 11.66-.47.48.17.67l17.35 4.99q.67.2.73-.51.7-8.72-2.02-17.67M142.57 57.42q2.9 8.01 3.04 16.55.01.66.55.29 8.96-6.22 18.8-10.73M166.38 66.04l-17.42 11.09a.25.25 0 0 0 .03.43l14.33 6.97a.72.71 26.9 0 0 .94-.3l3.1-5.78M170.6 80.82l-1.23 2.84q-.32.73.42.45l4.81-1.87" vector-effect="non-scaling-stroke"/><path stroke="#d82125" d="M174.6 82.24q.34 1.8 1.01 2.14.31.15.35.51l.11 1.16" vector-effect="non-scaling-stroke"/><path stroke="#f49192" d="m176.07 86.05-5.98 2.62q-.59.25-.09.65 8.3 6.53 14.23 15.13.5.71.88.43.36-.27.8-1.11" vector-effect="non-scaling-stroke"/><path stroke="#d82125" d="M185.91 103.77q1.44 2.11 1.54 5.81" vector-effect="non-scaling-stroke"/><path stroke="#e48183" d="m143.98 122.91-3.44 1.25" vector-effect="non-scaling-stroke"/><path stroke="#f49192" d="m140.54 124.16-10.78 4.16" vector-effect="non-scaling-stroke"/><path stroke="#d82125" d="m129.76 128.32.58-1.46q.16-.41-.18-.69c-2.26-1.85-4.41.59-6.73-.14" vector-effect="non-scaling-stroke"/><path stroke="#f49192" d="m123.43 126.03 11.34-4.5q.51-.2.39-.73-1.11-5.01-3.98-9.22-.38-.54-.78-.02-6.12 7.86-13.58 14.14" vector-effect="non-scaling-stroke"/><path stroke="#d82125" d="m116.82 125.7-1.16-2.69" vector-effect="non-scaling-stroke"/><path stroke="#f49192" d="m115.66 123.01 8.98-9.07a.3.3 0 0 0-.39-.45l-14.31 10.08" vector-effect="non-scaling-stroke"/><path stroke="#d82125" d="M109.94 123.57q-.99-1.77-2.09-1.55" vector-effect="non-scaling-stroke"/><path stroke="#f49192" d="m134.33 54.9 1.76.11a.44.44 0 0 1 .18.82q-8.45 4.47-15.25 11.18-.45.46-.66-.15l-3.72-10.91" vector-effect="non-scaling-stroke"/><path stroke="#d18e90" d="m201.24 71.27 3.41 1.53q.82.37-.06.58l-7.1 1.66" vector-effect="non-scaling-stroke"/><path stroke="#e38f92" d="m197.49 75.04-22.89 7.2" vector-effect="non-scaling-stroke"/><path stroke="#c7cacd" d="M104.07 35.03q-5.27 3.2-7.04 8.14" vector-effect="non-scaling-stroke"/><path stroke="#ab5a60" d="M97.03 43.17q-2.97-.64-5.08-4" vector-effect="non-scaling-stroke"/><path stroke="#f49192" d="m114.27 56.95 2.3 7.24a.27.26 18.9 0 1-.47.23l-3.86-5.52" vector-effect="non-scaling-stroke"/><path stroke="#b51d23" d="M206.78 104.59q.34-1.31-.23-2.17-.14-.21.04-.38l.24-.25q.32-.32-.05-.57-.34-.23-.54-.56" vector-effect="non-scaling-stroke"/><path stroke="#d18e90" d="M206.24 100.66q14.86-2.99 29.85-4.06a.22.21-22.8 0 0 .15-.36q-11.09-12.27-25.48-20.4-.45-.25-.66.22-3.59 8.13-9.01 15.22" vector-effect="non-scaling-stroke"/><path stroke="#b51d23" d="M201.09 91.28q.54-2.18-1.95-4.17" vector-effect="non-scaling-stroke"/><path stroke="#d18e90" d="m199.14 87.11 8.34-11.41a.3.3 0 0 0-.33-.47l-8.39 2.52" vector-effect="non-scaling-stroke"/><path stroke="#b51d23" d="M198.76 77.75q-1.24-.41-.52-1.98.2-.43-.26-.5-.39-.06-.49-.23" vector-effect="non-scaling-stroke"/><path stroke="#e38f92" d="m198.76 77.75-22.69 8.3M129.76 128.32l-5.87 2.37M121.24 131.74q-1.07.26-1.35.68" vector-effect="non-scaling-stroke"/><path stroke="#d37f82" d="m119.89 132.42-4.97 2.2" vector-effect="non-scaling-stroke"/><path stroke="#e38f92" d="m114.92 134.62-17.11 8.08" vector-effect="non-scaling-stroke"/><path stroke="#c36f74" d="m97.81 142.7-5.25 2.71" vector-effect="non-scaling-stroke"/><path stroke="#e38f92" d="M92.56 145.41q-8.93 4.41-15.73 9.46" vector-effect="non-scaling-stroke"/><path stroke="#ab5a60" d="M76.83 154.87q-1.34.84-1.69-.26" vector-effect="non-scaling-stroke"/><path stroke="#e38f92" d="m199.14 87.11-13.23 16.66" vector-effect="non-scaling-stroke"/><path stroke="#cfd0d2" d="M162.74 184.01q-1.64-2.06-4.43-1.01" vector-effect="non-scaling-stroke"/><path stroke="#efeff0" d="m158.31 183 4.62-17.02q.18-.69-.46-.38l-29.23 14.1" vector-effect="non-scaling-stroke"/><path stroke="#cfd0d2" d="M133.24 179.7q.37-2.28-2.02-3.1" vector-effect="non-scaling-stroke"/><path stroke="#efeff0" d="M131.22 176.6q16.03-5.77 31.33-12.77a.46.46 0 0 0-.09-.87q-12.3-2.65-23.16-9.01-.51-.31-.72.26-4.16 11.42-9.68 22.12" vector-effect="non-scaling-stroke"/><path stroke="#cfd0d2" d="M128.9 176.33q-2.08-3.71-4.06-2.42" vector-effect="non-scaling-stroke"/><path stroke="#efeff0" d="m124.84 173.91 8.78-17.86a.47.46-88.9 0 0-.6-.63q-10.09 4.47-20.16 7.42" vector-effect="non-scaling-stroke"/><path stroke="#cfd0d2" d="M112.86 162.84q-.05-3-2.34-3.74" vector-effect="non-scaling-stroke"/><path stroke="#efeff0" d="m110.52 159.1 23.07-8.07q1.09-.38.2-1.11-8.25-6.81-12.39-16.63-.16-.37-.16-.77v-.78" vector-effect="non-scaling-stroke"/><path stroke="#d37f82" d="m121.24 131.74 2.65-1.05" vector-effect="non-scaling-stroke"/><path stroke="#efeff0" d="M123.89 130.69q4.35 9.8 12.2 16.6.52.45.72-.21 3.26-11.14 3.73-22.92" vector-effect="non-scaling-stroke"/><path stroke="#e38f92" d="m115.66 123.01-13.62 10.26a.15.15 0 0 1-.2-.21l8.1-9.49M123.43 126.03l-15.62 7.04a.1.1 0 0 1-.1-.17l9.11-7.2M206.24 100.66l-16.7 3.62a.28.28 0 0 1-.24-.48q6.44-5.62 11.79-12.52" vector-effect="non-scaling-stroke"/><path stroke="#c7cacd" d="m87.95 166.14-20.81 5.92q-.58.16-.45-.42c1.58-7.43 6.35-11.69 10.14-16.77" vector-effect="non-scaling-stroke"/><path stroke="#dfe0e1" d="m109.57 145.14-8.96 15.04q-.34.56-.63-.03-3.8-7.65-2.17-17.45M112.86 162.84l-8.89 2.64a.35.35 0 0 0-.17.57q7.36 8.35 16.95 13.99.48.28.75-.2l3.34-5.93M128.9 176.33q-.52.53-.72 1.13-.17.5.32.29l2.72-1.15M133.24 179.7l-6.51 2.79q-.72.3-.01.63 13.53 6.27 28.26 8.64.51.08.67-.41l2.66-8.35" vector-effect="non-scaling-stroke"/><path stroke="#a7abaf" d="m149.49 214.27-1.82-.96" vector-effect="non-scaling-stroke"/><path stroke="#dfe0e1" d="m147.67 213.31 6.74-18.07q.25-.68-.41-.38-12.62 5.67-25.95 9.28" vector-effect="non-scaling-stroke"/><path stroke="#a7abaf" d="M128.05 204.14q2.2-1.99-1.58-2.49" vector-effect="non-scaling-stroke"/><path stroke="#dfe0e1" d="m126.47 201.65 26.47-7.92q1.22-.36-.03-.58c-10.38-1.83-19.49-3.5-29.12-7.14a.73.72-61.8 0 0-.86.27l-7.27 10.41" vector-effect="non-scaling-stroke"/><path stroke="#a7abaf" d="m115.66 196.69-3.41-1.69" vector-effect="non-scaling-stroke"/><path stroke="#dfe0e1" d="m112.25 195 5.05-8.19q.45-.73-.37-.49l-19.19 5.44" vector-effect="non-scaling-stroke"/><path stroke="#a7abaf" d="M97.74 191.76q1.35-1.19-1.36-2.6" vector-effect="non-scaling-stroke"/><path stroke="#dfe0e1" d="m96.38 189.16 18.52-6.4q1.35-.47.11-1.17-8.53-4.78-14.94-12.1-.34-.39-.66.01l-11.57 14.08" vector-effect="non-scaling-stroke"/><path stroke="#a7abaf" d="M87.84 183.58q.02-1.49-2.3-1.56" vector-effect="non-scaling-stroke"/><path stroke="#dfe0e1" d="m85.54 182.02 9.86-13.7a.4.4 0 0 0-.43-.62l-5.21 1.29" vector-effect="non-scaling-stroke"/><path stroke="#a7abaf" d="M89.76 168.99q.55-.64.25-1.38c-.3-.76-1.34-1.08-2.06-1.47" vector-effect="non-scaling-stroke"/><path stroke="#dfe0e1" d="m87.95 166.14 7.4-2.19q.57-.17.28-.68-4.52-8.15-3.07-17.86M110.52 159.1l-3.44 1.09q-.68.21-.34-.42l6.58-11.95" vector-effect="non-scaling-stroke"/><path stroke="#efeff0" d="m113.32 147.82 6.57-15.4" vector-effect="non-scaling-stroke"/><path stroke="#cfd0d2" d="M113.32 147.82q-1.51-2.12-3.75-2.68" vector-effect="non-scaling-stroke"/><path stroke="#efeff0" d="m109.57 145.14 5.35-10.52" vector-effect="non-scaling-stroke"/><path stroke="#c7cacd" d="m89.76 168.99-22.63 5.35a.8.8 0 0 0-.61.91c1.1 6.63 6.25 12.73 11.39 16.91q.4.32.69-.09l6.94-10.05M87.84 183.58q-3.59 4.54-7.1 9.23c-.25.33-.33.8-.24 1.16q.18.71.88.47l15-5.28M97.74 191.76l-14.03 3.86a.43.43 0 0 0-.11.79q10.03 6.02 21.36 9.05.48.13.75-.29l6.54-10.17M115.66 196.69l-6.96 9.04a.57.57 0 0 0 .61.9l17.16-4.98M128.05 204.14l-14.4 3.3a.16.16 0 0 0 0 .32l34.02 5.55" vector-effect="non-scaling-stroke"/><path stroke="gray" d="M156.42 210.48a.77.76-85.9 0 1 .77.89q-.43 2.67-.26 3.41a.56.41-64.3 0 0 .86-.46q-.33-2.32.74-4.28.3-.55-.33-.55l-2.29.03q-.85.01-.26.62.35.35.77.34M160.03 210.01l-.12 4.75a.29.29 0 0 0 .49.22q.56-.52.31-1.34-.15-.5.24-.85 1.48-1.35.01-3.11a.53.53 0 0 0-.93.33M163.93 212.53q.14-.05.27-.11.55-.28.55.33v1.75q0 .25.25.25.13 0 .27.01.32.02.31-.3l-.12-4.58a.39.39 0 0 0-.59-.33l-.56.33q-.36.21-.36.62-.03 1.91-1.61 2.29-.46.11-.4.57l.17 1.23a.45.44-38.6 0 0 .86.09l.74-1.95q.06-.15.22-.2M127.3 266.74c14.19 9.42 24.77-10.69 10.7-13.21q-3.84-.68-6.27-1.31c-6.35-1.66-4.31-8.25 1.18-9.04q6.85-.98 8.28 5.12a1.17 1.17 0 0 0 2.31-.27v-5.99a1.19 1.19 0 0 0-2.23-.56l-.31.57q-.28.53-.78.21-5.56-3.56-11.02-.61c-4.04 2.18-5.56 8.02-1.82 11.25 3.49 3.02 17.61 2.29 14.19 9.79-2.66 5.86-14.41 4.86-14.82-2.26q-.04-.72-.76-.69l-.95.03q-.75.03-.75.79v6.74a1.18 1.18 0 0 0 2.29.41l.3-.82q.13-.36.46-.15M165.09 269.2c12.81-.87 15.52-18.32 7.06-25.95-5.84-5.27-14.06-2.67-17.45 3.94-3.85 7.49-1.69 17.41 6.21 21.44q.56.29.02.6l-2.68 1.53q-.72.41-.56 1.21l.3 1.56a.59.58 78.6 0 0 .7.47l7.95-1.74a.8.79 55.5 0 1 .63.12q4.9 3.24 9.37-.19a1.23 1.23 0 0 0-1.26-2.1l-3.06 1.42a1.05 1.05 0 0 1-.93-.02q-2.97-1.5-6.29-1.72a.29.28 44.5 0 1-.01-.57M72.5 265.19a.56.56 0 0 1-.56.56h-5.07a.56.56 0 0 0-.56.56v1.38a.56.56 0 0 0 .56.56h13.7a.56.56 0 0 0 .56-.6l-.1-1.38a.56.56 0 0 0-.56-.52h-4.91a.56.56 0 0 1-.56-.56v-21.13a.56.56 0 0 1 .56-.56h6.13a.56.56 0 0 1 .56.56v6.9a.56.56 0 0 0 .63.56l1.38-.18a.56.56 0 0 0 .49-.55v-9.23a.56.56 0 0 0-.56-.56H63.31a.56.56 0 0 0-.56.56v9.35a.56.56 0 0 0 .54.56l1.38.05a.56.56 0 0 0 .58-.56v-6.9a.56.56 0 0 1 .56-.56h6.13a.56.56 0 0 1 .56.56v21.13M189 265.75h-4.67q-.66 0-.66.67v1.16q0 .67.66.67h21.91q.49 0 .49-.49.06-4.81.01-9.64-.01-.83-.36-1.14-.54-.48-1.58-.14a.79.79 0 0 0-.54.75l-.01 7.66q0 .5-.5.5H192.5q-.5 0-.5-.5v-21.02q0-.58.58-.64 2.21-.24 4.43-.29 1.52-.04.85-1.86a.67.67 0 0 0-.63-.44H184.5q-.75 0-.75.75v1.12q0 .63.63.63H189q.5 0 .5.5v21.25q0 .5-.5.5M114.26 253.27a.27.27 0 0 0-.27-.27H93.77a.27.27 0 0 0-.27.27v2.72a.27.27 0 0 0 .27.27h20.22a.27.27 0 0 0 .27-.27v-2.72" vector-effect="non-scaling-stroke"/><path stroke="#f49192" d="m137.72 79.35-14.33-4.3q-1.55-.46-1.22 1.12 1.74 8.46.68 17a.34.34 0 0 0 .56.29l14.51-13.27a.5.49 31.8 0 0-.2-.84M158.05 88.87l-12.77-6.31q-.55-.27-.68.33-1.87 8.75-6.14 16.6a.34.34 0 0 0 .49.45q9.18-5.95 19.1-10.58.5-.24 0-.49M123.92 97.8l7.77 5.88q.29.22.48-.09 5.52-9.21 8.3-19.57a.36.36 0 0 0-.58-.37l-15.98 13.64a.33.33 0 0 0 .01.51M164.04 93.19c-7.04 10.35-13.56 17.41-21.55 24.91q-1.12 1.05.32.51 18.8-7.03 38.2-12.19a.36.36 0 0 0 .15-.62q-7.7-7.02-16.39-12.75a.53.52 33.7 0 0-.73.14M138.32 119.71l18.97-24.17a.52.52 0 0 0-.66-.77l-22.06 12.14q-.59.32-.26.91 2.97 5.41 3.17 11.62.04 1.29.84.27M126.71 106.84l-5.26-3.3a.5.49 24 0 0-.74.28q-1.94 6.63-5.74 12.4a.17.16-2.1 0 0 .24.22l11.54-8.66q.67-.5-.04-.94" vector-effect="non-scaling-stroke"/><path stroke="#efeff0" d="M142.22 151.86q9.79 6.35 20.89 9.98a.72.72 0 0 0 .94-.63l1.87-23.58a.49.49 0 0 0-.79-.43q-10.76 8.05-22.86 13.92-.67.33-.05.74" vector-effect="non-scaling-stroke"/><path stroke="gray" d="M164.808 266.42a11.69 9.47 90.6 0 0 9.591-11.59 11.69 9.47 90.6 0 0-9.347-11.79 11.69 9.47 90.6 0 0-9.591 11.59 11.69 9.47 90.6 0 0 9.347 11.79" vector-effect="non-scaling-stroke"/></g><path fill="#fff" d="M0 0h300v300H0V0Zm132.93 19.37q-15.32 4.98-29.7 12.03-6.53 3.22-11.28 7.77-.67 2.75 1.25 4.63 8.56 8.4 17.09 17.03c15.51 19.31 11.37 42.6-2.44 61.19q-14.07 18.15-32.71 32.59c-5.91 4.74-17 17.35-14.36 25.39 9.32 28.36 61.92 33.97 86.97 35.02q.77.03 1.74-.75 7.8-14.5 13.25-30.26c7.2-19.88 9.82-45.65 6.19-66.76q-.11-.69-.79-.52l-3.11.77q-.57.14-.52.72l1.08 13.87q.08 1.08-.86.53-7.6-4.44-15.1-9.18-1.06-.67-2-.7a1.17 1.17 0 0 0-.59 2.19l17.43 9.51a.52.52 0 0 1 .03.89q-11.14 7.29-23.45 12.41a.34.34 0 0 1-.46-.41q3.42-11.75 3.39-24.42 21.57-7.42 43.47-13.33l19.33-4.99 33.03-6.63q.51-.11.23-.55-14.96-23.53-41.89-32.65c-15.31-6.1-31.39-9.12-48.27-11.72q-9.68-15.71-14.89-33-.25-.82-.67-.98-.57-.21-1.39.31Zm23.49 191.11a.77.76-85.9 0 1 .77.89q-.43 2.67-.26 3.41a.56.41-64.3 0 0 .86-.46q-.33-2.32.74-4.28.3-.55-.33-.55l-2.29.03q-.85.01-.26.62.35.35.77.34Zm3.61-.47-.12 4.75a.29.29 0 0 0 .49.22q.56-.52.31-1.34-.15-.5.24-.85 1.48-1.35.01-3.11a.53.53 0 0 0-.93.33Zm3.9 2.52q.14-.05.27-.11.55-.28.55.33v1.75q0 .25.25.25.13 0 .27.01.32.02.31-.3l-.12-4.58a.39.39 0 0 0-.59-.33l-.56.33q-.36.21-.36.62-.03 1.91-1.61 2.29-.46.11-.4.57l.17 1.23a.45.44-38.6 0 0 .86.09l.74-1.95q.06-.15.22-.2Zm-36.63 54.21c14.19 9.42 24.77-10.69 10.7-13.21q-3.84-.68-6.27-1.31c-6.35-1.66-4.31-8.25 1.18-9.04q6.85-.98 8.28 5.12a1.17 1.17 0 0 0 2.31-.27v-5.99a1.19 1.19 0 0 0-2.23-.56l-.31.57q-.28.53-.78.21-5.56-3.56-11.02-.61c-4.04 2.18-5.56 8.02-1.82 11.25 3.49 3.02 17.61 2.29 14.19 9.79-2.66 5.86-14.41 4.86-14.82-2.26q-.04-.72-.76-.69l-.95.03q-.75.03-.75.79v6.74a1.18 1.18 0 0 0 2.29.41l.3-.82q.13-.36.46-.15Zm37.79 2.46c12.81-.87 15.52-18.32 7.06-25.95-5.84-5.27-14.06-2.67-17.45 3.94-3.85 7.49-1.69 17.41 6.21 21.44q.56.29.02.6l-2.68 1.53q-.72.41-.56 1.21l.3 1.56a.59.58 78.6 0 0 .7.47l7.95-1.74a.8.79 55.5 0 1 .63.12q4.9 3.24 9.37-.19a1.23 1.23 0 0 0-1.26-2.1l-3.06 1.42a1.05 1.05 0 0 1-.93-.02q-2.97-1.5-6.29-1.72a.29.28 44.5 0 1-.01-.57Zm-92.59-4.01a.56.56 0 0 1-.56.56h-5.07a.56.56 0 0 0-.56.56v1.38a.56.56 0 0 0 .56.56h13.7a.56.56 0 0 0 .56-.6l-.1-1.38a.56.56 0 0 0-.56-.52h-4.91a.56.56 0 0 1-.56-.56v-21.13a.56.56 0 0 1 .56-.56h6.13a.56.56 0 0 1 .56.56v6.9a.56.56 0 0 0 .63.56l1.38-.18a.56.56 0 0 0 .49-.55v-9.23a.56.56 0 0 0-.56-.56H63.31a.56.56 0 0 0-.56.56v9.35a.56.56 0 0 0 .54.56l1.38.05a.56.56 0 0 0 .58-.56v-6.9a.56.56 0 0 1 .56-.56h6.13a.56.56 0 0 1 .56.56v21.13Zm116.5.56h-4.67q-.66 0-.66.67v1.16q0 .67.66.67h21.91q.49 0 .49-.49.06-4.81.01-9.64-.01-.83-.36-1.14-.54-.48-1.58-.14a.79.79 0 0 0-.54.75l-.01 7.66q0 .5-.5.5H192.5q-.5 0-.5-.5v-21.02q0-.58.58-.64 2.21-.24 4.43-.29 1.52-.04.85-1.86a.67.67 0 0 0-.63-.44H184.5q-.75 0-.75.75v1.12q0 .63.63.63H189q.5 0 .5.5v21.25q0 .5-.5.5Zm-74.74-12.48a.27.27 0 0 0-.27-.27H93.77a.27.27 0 0 0-.27.27v2.72a.27.27 0 0 0 .27.27h20.22a.27.27 0 0 0 .27-.27v-2.72Z"/><path fill="#dfdfe0" d="m149.88 53.04-6.89-.97.57-.08a.74.74 0 0 0 .55-1.06l-4.21-8.4a.56.56 0 0 0-.83-.2l-9.97 7.38-8.58-1.15q-.49-.86-.09-.74c4.99.9 12.84-4.74 17.47-7.09q.88-.45-.1-.58l-6.53-.83q1.47-.65 1.21-2.79l4.73.96q.64.13.41-.49-2.82-7.67-4.11-15.66-.08-.53-1.04-.04.76-1.1.46-1.93.82-.52 1.39-.31.42.16.67.98 5.21 17.29 14.89 33Z"/><path fill="#bec0c3" d="M132.93 19.37q.3.83-.46 1.93-12.22 4.62-23.8 10.68a.33.33 0 0 0 .1.61l23.71 3.94q.26 2.14-1.21 2.79-12.45-1.29-24.29-4.79-.48-.15-.12.2l13.57 13.09q-.4-.12.09.74l-6.89-1.52-9.56-12.01q.58-1.46.7-2.78.08-.87-1.54-.85 14.38-7.05 29.7-12.03Z"/><path fill="#fff" d="m132.48 36.53-23.71-3.94a.33.33 0 0 1-.1-.61q11.58-6.06 23.8-10.68.96-.49 1.04.04 1.29 7.99 4.11 15.66.23.62-.41.49l-4.73-.96Z"/><path fill="#8f959b" d="M103.23 31.4q1.62-.02 1.54.85-.12 1.32-.7 2.78-5.27 3.2-7.04 8.14-2.97-.64-5.08-4 4.75-4.55 11.28-7.77Z"/><path fill="#fff" d="m131.27 39.32 6.53.83q.98.13.1.58c-4.63 2.35-12.48 7.99-17.47 7.09l-13.57-13.09q-.36-.35.12-.2 11.84 3.5 24.29 4.79ZM104.07 35.03l9.56 12.01-16.6-3.87q1.77-4.94 7.04-8.14Z"/><path fill="#c71e24" d="m97.03 43.17 16.6 3.87 6.89 1.52 8.58 1.15 13.89 2.36 6.89.97c16.88 2.6 32.96 5.62 48.27 11.72q-2.01.18-1.65 2.54c.31 1.96 1.59 2.19 3.42 2.41q1.39.17 1.32 1.56-12.4-5.19-25.41-8.39-.5-.12-.56.4-.95 9.08-4.67 17.54.15-1.53-.67-2.29-.4-.36-.93-.29l-1.64.21q3.6-6.85 5.43-14.47.42-1.8-1.18-.89l-5.23 2.95-1.42-2.51 3.71-1.85q1.06-.53-.1-.74l-25.71-4.72q-.52-.09-.6.43-.09.55.31.77-.93.6-1.5.59-.58 0-.41-.56.42-1.32-.61-.74-.31-1.29-2.52.86l-.3-2.8q-.05-.45-.51-.46-1.22 0-2.39.59l-19.1-3.64q-.66-.12-.4.5l1.81 4.19q-1.05 1-2.37 1l-2.03-5.96q-.17-.51-.7-.65l-10-2.65a.2.2 0 0 0-.17.36q6.26 4.7 10.87 10.85-.97 2.14-1.95 1.93-8.53-8.63-17.09-17.03-1.92-1.88-1.25-4.63 2.11 3.36 5.08 4Z"/><path fill="#fff" d="m142.99 52.07-13.89-2.36 9.97-7.38a.56.56 0 0 1 .83.2l4.21 8.4a.74.74 0 0 1-.55 1.06l-.57.08ZM114.27 56.95l2.3 7.24a.27.26 18.9 0 1-.47.23l-3.86-5.52q-4.61-6.15-10.87-10.85a.2.2 0 0 1 .17-.36l10 2.65q.53.14.7.65l2.03 5.96ZM134.33 54.9l1.76.11a.44.44 0 0 1 .18.82q-8.45 4.47-15.25 11.18-.45.46-.66-.15l-3.72-10.91-1.81-4.19q-.26-.62.4-.5l19.1 3.64Z"/><path fill="#e82325" d="M137.53 57.57q-7.42 5.38-13.71 11.66-.47.48.17.67l17.35 4.99q.67.2.73-.51.7-8.72-2.02-17.67 1.03-.58.61.74-.17.56.41.56.57.01 1.5-.59 2.9 8.01 3.04 16.55.01.66.55.29 8.96-6.22 18.8-10.73l1.42 2.51-17.42 11.09a.25.25 0 0 0 .03.43l14.33 6.97a.72.71 26.9 0 0 .94-.3l3.1-5.78 1.64-.21q.53-.07.93.29.82.76.67 2.29l-1.23 2.84q-.32.73.42.45l4.81-1.87q.34 1.8 1.01 2.14.31.15.35.51l.11 1.16-5.98 2.62q-.59.25-.09.65 8.3 6.53 14.23 15.13.5.71.88.43.36-.27.8-1.11 1.44 2.11 1.54 5.81-21.9 5.91-43.47 13.33l-3.44 1.25-10.78 4.16.58-1.46q.16-.41-.18-.69c-2.26-1.85-4.41.59-6.73-.14l11.34-4.5q.51-.2.39-.73-1.11-5.01-3.98-9.22-.38-.54-.78-.02-6.12 7.86-13.58 14.14l-1.16-2.69 8.98-9.07a.3.3 0 0 0-.39-.45l-14.31 10.08q-.99-1.77-2.09-1.55c13.81-18.59 17.95-41.88 2.44-61.19q.98.21 1.95-1.93l3.86 5.52a.27.26 18.9 0 0 .47-.23l-2.3-7.24q1.32 0 2.37-1l3.72 10.91q.21.61.66.15 6.8-6.71 15.25-11.18a.44.44 0 0 0-.18-.82l-1.76-.11q1.17-.59 2.39-.59.46.01.51.46l.3 2.8Zm.19 21.78-14.33-4.3q-1.55-.46-1.22 1.12 1.74 8.46.68 17a.34.34 0 0 0 .56.29l14.51-13.27a.5.49 31.8 0 0-.2-.84Zm20.33 9.52-12.77-6.31q-.55-.27-.68.33-1.87 8.75-6.14 16.6a.34.34 0 0 0 .49.45q9.18-5.95 19.1-10.58.5-.24 0-.49Zm-34.13 8.93 7.77 5.88q.29.22.48-.09 5.52-9.21 8.3-19.57a.36.36 0 0 0-.58-.37l-15.98 13.64a.33.33 0 0 0 .01.51Zm40.12-4.61c-7.04 10.35-13.56 17.41-21.55 24.91q-1.12 1.05.32.51 18.8-7.03 38.2-12.19a.36.36 0 0 0 .15-.62q-7.7-7.02-16.39-12.75a.53.52 33.7 0 0-.73.14Zm-25.72 26.52 18.97-24.17a.52.52 0 0 0-.66-.77l-22.06 12.14q-.59.32-.26.91 2.97 5.41 3.17 11.62.04 1.29.84.27Zm-11.61-12.87-5.26-3.3a.5.49 24 0 0-.74.28q-1.94 6.63-5.74 12.4a.17.16-2.1 0 0 .24.22l11.54-8.66q.67-.5-.04-.94Z"/><path fill="#fff" d="M140.05 56.71q2.72 8.95 2.02 17.67-.06.71-.73.51l-17.35-4.99q-.64-.19-.17-.67 6.29-6.28 13.71-11.66 2.21-2.15 2.52-.86ZM164.96 63.53q-9.84 4.51-18.8 10.73-.54.37-.55-.29-.14-8.54-3.04-16.55-.4-.22-.31-.77.08-.52.6-.43l25.71 4.72q1.16.21.1.74l-3.71 1.85ZM167.36 78.45l-3.1 5.78a.72.71 26.9 0 1-.94.3l-14.33-6.97a.25.25 0 0 1-.03-.43l17.42-11.09 5.23-2.95q1.6-.91 1.18.89-1.83 7.62-5.43 14.47ZM201.24 71.27l3.41 1.53q.82.37-.06.58l-7.1 1.66-22.89 7.2-4.81 1.87q-.74.28-.42-.45l1.23-2.84q3.72-8.46 4.67-17.54.06-.52.56-.4 13.01 3.2 25.41 8.39Z"/><path fill="#a21c21" d="M198.15 64.76q26.93 9.12 41.89 32.65.28.44-.23.55l-33.03 6.63q.34-1.31-.23-2.17-.14-.21.04-.38l.24-.25q.32-.32-.05-.57-.34-.23-.54-.56 14.86-2.99 29.85-4.06a.22.21-22.8 0 0 .15-.36q-11.09-12.27-25.48-20.4-.45-.25-.66.22-3.59 8.13-9.01 15.22.54-2.18-1.95-4.17l8.34-11.41a.3.3 0 0 0-.33-.47l-8.39 2.52q-1.24-.41-.52-1.98.2-.43-.26-.5-.39-.06-.49-.23l7.1-1.66q.88-.21.06-.58l-3.41-1.53q.07-1.39-1.32-1.56c-1.83-.22-3.11-.45-3.42-2.41q-.36-2.36 1.65-2.54Z"/><path fill="#fff" d="M137.72 79.35a.5.49 31.8 0 1 .2.84l-14.51 13.27a.34.34 0 0 1-.56-.29q1.06-8.54-.68-17-.33-1.58 1.22-1.12l14.33 4.3Z"/><path fill="#c71e24" d="M197.49 75.04q.1.17.49.23.46.07.26.5-.72 1.57.52 1.98l-22.69 8.3-.11-1.16q-.04-.36-.35-.51-.67-.34-1.01-2.14l22.89-7.2Z"/><path fill="#fff" d="m199.14 87.11-13.23 16.66q-.44.84-.8 1.11-.38.28-.88-.43-5.93-8.6-14.23-15.13-.5-.4.09-.65l5.98-2.62 22.69-8.3 8.39-2.52a.3.3 0 0 1 .33.47l-8.34 11.41ZM206.24 100.66l-16.7 3.62a.28.28 0 0 1-.24-.48q6.44-5.62 11.79-12.52 5.42-7.09 9.01-15.22.21-.47.66-.22 14.39 8.13 25.48 20.4a.22.21-22.8 0 1-.15.36q-14.99 1.07-29.85 4.06ZM158.05 88.87q.5.25 0 .49-9.92 4.63-19.1 10.58a.34.34 0 0 1-.49-.45q4.27-7.85 6.14-16.6.13-.6.68-.33l12.77 6.31ZM123.92 97.8a.33.33 0 0 1-.01-.51l15.98-13.64a.36.36 0 0 1 .58.37q-2.78 10.36-8.3 19.57-.19.31-.48.09l-7.77-5.88Z"/><path fill="#c71e24" d="M199.14 87.11q2.49 1.99 1.95 4.17-5.35 6.9-11.79 12.52a.28.28 0 0 0 .24.48l16.7-3.62q.2.33.54.56.37.25.05.57l-.24.25q-.18.17-.04.38.57.86.23 2.17l-19.33 4.99q-.1-3.7-1.54-5.81l13.23-16.66Z"/><path fill="#fff" d="M142.49 118.1c7.99-7.5 14.51-14.56 21.55-24.91a.53.52 33.7 0 1 .73-.14q8.69 5.73 16.39 12.75a.36.36 0 0 1-.15.62q-19.4 5.16-38.2 12.19-1.44.54-.32-.51ZM138.32 119.71q-.8 1.02-.84-.27-.2-6.21-3.17-11.62-.33-.59.26-.91l22.06-12.14a.52.52 0 0 1 .66.77l-18.97 24.17ZM126.71 106.84q.71.44.04.94l-11.54 8.66a.17.16-2.1 0 1-.24-.22q3.8-5.77 5.74-12.4a.5.49 24 0 1 .74-.28l5.26 3.3ZM123.43 126.03l-15.62 7.04a.1.1 0 0 1-.1-.17l9.11-7.2q7.46-6.28 13.58-14.14.4-.52.78.02 2.87 4.21 3.98 9.22.12.53-.39.73l-11.34 4.5ZM115.66 123.01l-13.62 10.26a.15.15 0 0 1-.2-.21l8.1-9.49 14.31-10.08a.3.3 0 0 1 .39.45l-8.98 9.07Z"/><path fill="#dfdfe0" d="M162.74 184.01q-1.64-2.06-4.43-1.01l4.62-17.02q.18-.69-.46-.38l-29.23 14.1q.37-2.28-2.02-3.1 16.03-5.77 31.33-12.77a.46.46 0 0 0-.09-.87q-12.3-2.65-23.16-9.01-.51-.31-.72.26-4.16 11.42-9.68 22.12-2.08-3.71-4.06-2.42l8.78-17.86a.47.46-88.9 0 0-.6-.63q-10.09 4.47-20.16 7.42-.05-3-2.34-3.74l23.07-8.07q1.09-.38.2-1.11-8.25-6.81-12.39-16.63-.16-.37-.16-.77v-.78l2.65-1.05q4.35 9.8 12.2 16.6.52.45.72-.21 3.26-11.14 3.73-22.92l3.44-1.25q.03 12.67-3.39 24.42a.34.34 0 0 0 .46.41q12.31-5.12 23.45-12.41a.52.52 0 0 0-.03-.89l-17.43-9.51a1.17 1.17 0 0 1 .59-2.19q.94.03 2 .7 7.5 4.74 15.1 9.18.94.55.86-.53l-1.08-13.87q-.05-.58.52-.72l3.11-.77q.68-.17.79.52c3.63 21.11 1.01 46.88-6.19 66.76Zm-20.52-32.15q9.79 6.35 20.89 9.98a.72.72 0 0 0 .94-.63l1.87-23.58a.49.49 0 0 0-.79-.43q-10.76 8.05-22.86 13.92-.67.33-.05.74Z"/><path fill="#c71e24" d="M107.85 122.02q1.1-.22 2.09 1.55l-8.1 9.49a.15.15 0 0 0 .2.21l13.62-10.26 1.16 2.69-9.11 7.2a.1.1 0 0 0 .1.17l15.62-7.04c2.32.73 4.47-1.71 6.73.14q.34.28.18.69l-.58 1.46-5.87 2.37-2.65 1.05q-1.07.26-1.35.68l-4.97 2.2-17.11 8.08-5.25 2.71q-8.93 4.41-15.73 9.46-1.34.84-1.69-.26 18.64-14.44 32.71-32.59Z"/><path fill="#fff" d="M140.54 124.16q-.47 11.78-3.73 22.92-.2.66-.72.21-7.85-6.8-12.2-16.6l5.87-2.37 10.78-4.16ZM121.24 131.74v.78q0 .4.16.77 4.14 9.82 12.39 16.63.89.73-.2 1.11l-23.07 8.07-3.44 1.09q-.68.21-.34-.42l6.58-11.95 6.57-15.4q.28-.42 1.35-.68Z"/><path fill="#dfdfe0" d="m119.89 132.42-6.57 15.4q-1.51-2.12-3.75-2.68l5.35-10.52 4.97-2.2Z"/><path fill="#fff" d="m114.92 134.62-5.35 10.52-8.96 15.04q-.34.56-.63-.03-3.8-7.65-2.17-17.45l17.11-8.08ZM142.22 151.86q-.62-.41.05-.74 12.1-5.87 22.86-13.92a.49.49 0 0 1 .79.43l-1.87 23.58a.72.72 0 0 1-.94.63q-11.1-3.63-20.89-9.98Z"/><path fill="#bec0c3" d="M97.81 142.7q-1.63 9.8 2.17 17.45.29.59.63.03l8.96-15.04q2.24.56 3.75 2.68l-6.58 11.95q-.34.63.34.42l3.44-1.09q2.29.74 2.34 3.74l-8.89 2.64a.35.35 0 0 0-.17.57q7.36 8.35 16.95 13.99.48.28.75-.2l3.34-5.93q1.98-1.29 4.06 2.42-.52.53-.72 1.13-.17.5.32.29l2.72-1.15q2.39.82 2.02 3.1l-6.51 2.79q-.72.3-.01.63 13.53 6.27 28.26 8.64.51.08.67-.41l2.66-8.35q2.79-1.05 4.43 1.01-5.45 15.76-13.25 30.26l-1.82-.96 6.74-18.07q.25-.68-.41-.38-12.62 5.67-25.95 9.28 2.2-1.99-1.58-2.49l26.47-7.92q1.22-.36-.03-.58c-10.38-1.83-19.49-3.5-29.12-7.14a.73.72-61.8 0 0-.86.27l-7.27 10.41-3.41-1.69 5.05-8.19q.45-.73-.37-.49l-19.19 5.44q1.35-1.19-1.36-2.6l18.52-6.4q1.35-.47.11-1.17-8.53-4.78-14.94-12.1-.34-.39-.66.01l-11.57 14.08q.02-1.49-2.3-1.56l9.86-13.7a.4.4 0 0 0-.43-.62l-5.21 1.29q.55-.64.25-1.38c-.3-.76-1.34-1.08-2.06-1.47l7.4-2.19q.57-.17.28-.68-4.52-8.15-3.07-17.86l5.25-2.71Z"/><path fill="#fff" d="M92.56 145.41q-1.45 9.71 3.07 17.86.29.51-.28.68l-7.4 2.19-20.81 5.92q-.58.16-.45-.42c1.58-7.43 6.35-11.69 10.14-16.77q6.8-5.05 15.73-9.46ZM131.22 176.6l-2.72 1.15q-.49.21-.32-.29.2-.6.72-1.13 5.52-10.7 9.68-22.12.21-.57.72-.26 10.86 6.36 23.16 9.01a.46.46 0 0 1 .09.87q-15.3 7-31.33 12.77Z"/><path fill="#8f959b" d="M75.14 154.61q.35 1.1 1.69.26c-3.79 5.08-8.56 9.34-10.14 16.77q-.13.58.45.42l20.81-5.92c.72.39 1.76.71 2.06 1.47q.3.74-.25 1.38l-22.63 5.35a.8.8 0 0 0-.61.91c1.1 6.63 6.25 12.73 11.39 16.91q.4.32.69-.09l6.94-10.05q2.32.07 2.3 1.56-3.59 4.54-7.1 9.23c-.25.33-.33.8-.24 1.16q.18.71.88.47l15-5.28q2.71 1.41 1.36 2.6l-14.03 3.86a.43.43 0 0 0-.11.79q10.03 6.02 21.36 9.05.48.13.75-.29l6.54-10.17 3.41 1.69-6.96 9.04a.57.57 0 0 0 .61.9l17.16-4.98q3.78.5 1.58 2.49l-14.4 3.3a.16.16 0 0 0 0 .32l34.02 5.55 1.82.96q-.97.78-1.74.75c-25.05-1.05-77.65-6.66-86.97-35.02-2.64-8.04 8.45-20.65 14.36-25.39Z"/><path fill="#fff" d="m124.84 173.91-3.34 5.93q-.27.48-.75.2-9.59-5.64-16.95-13.99a.35.35 0 0 1 .17-.57l8.89-2.64q10.07-2.95 20.16-7.42a.47.46-88.9 0 1 .6.63l-8.78 17.86ZM158.31 183l-2.66 8.35q-.16.49-.67.41-14.73-2.37-28.26-8.64-.71-.33.01-.63l6.51-2.79 29.23-14.1q.64-.31.46.38L158.31 183ZM85.54 182.02l-6.94 10.05q-.29.41-.69.09c-5.14-4.18-10.29-10.28-11.39-16.91a.8.8 0 0 1 .61-.91l22.63-5.35 5.21-1.29a.4.4 0 0 1 .43.62l-9.86 13.7ZM96.38 189.16l-15 5.28q-.7.24-.88-.47c-.09-.36-.01-.83.24-1.16q3.51-4.69 7.1-9.23l11.57-14.08q.32-.4.66-.01 6.41 7.32 14.94 12.1 1.24.7-.11 1.17l-18.52 6.4ZM126.47 201.65l-17.16 4.98a.57.57 0 0 1-.61-.9l6.96-9.04 7.27-10.41a.73.72-61.8 0 1 .86-.27c9.63 3.64 18.74 5.31 29.12 7.14q1.25.22.03.58l-26.47 7.92ZM112.25 195l-6.54 10.17q-.27.42-.75.29-11.33-3.03-21.36-9.05a.43.43 0 0 1 .11-.79l14.03-3.86 19.19-5.44q.82-.24.37.49l-5.05 8.19ZM147.67 213.31l-34.02-5.55a.16.16 0 0 1 0-.32l14.4-3.3q13.33-3.61 25.95-9.28.66-.3.41.38l-6.74 18.07Z"/><path d="M156.42 210.48q-.42.01-.77-.34-.59-.61.26-.62l2.29-.03q.63 0 .33.55-1.07 1.96-.74 4.28a.56.41-64.3 0 1-.86.46q-.17-.74.26-3.41a.77.76-85.9 0 0-.77-.89ZM160.96 209.68q1.47 1.76-.01 3.11-.39.35-.24.85.25.82-.31 1.34a.29.29 0 0 1-.49-.22l.12-4.75a.53.53 0 0 1 .93-.33ZM163.71 212.73l-.74 1.95a.45.44-38.6 0 1-.86-.09l-.17-1.23q-.06-.46.4-.57 1.58-.38 1.61-2.29 0-.41.36-.62l.56-.33a.39.39 0 0 1 .59.33l.12 4.58q.01.32-.31.3-.14-.01-.27-.01-.25 0-.25-.25v-1.75q0-.61-.55-.33-.13.06-.27.11-.16.05-.22.2ZM126.84 266.89l-.3.82a1.18 1.18 0 0 1-2.29-.41v-6.74q0-.76.75-.79l.95-.03q.72-.03.76.69c.41 7.12 12.16 8.12 14.82 2.26 3.42-7.5-10.7-6.77-14.19-9.79-3.74-3.23-2.22-9.07 1.82-11.25q5.46-2.95 11.02.61.5.32.78-.21l.31-.57a1.19 1.19 0 0 1 2.23.56v5.99a1.17 1.17 0 0 1-2.31.27q-1.43-6.1-8.28-5.12c-5.49.79-7.53 7.38-1.18 9.04q2.43.63 6.27 1.31c14.07 2.52 3.49 22.63-10.7 13.21q-.33-.21-.46.15ZM165.09 269.2a.29.28 44.5 0 0 .01.57q3.32.22 6.29 1.72a1.05 1.05 0 0 0 .93.02l3.06-1.42a1.23 1.23 0 0 1 1.26 2.1q-4.47 3.43-9.37.19a.8.79 55.5 0 0-.63-.12l-7.95 1.74a.59.58 78.6 0 1-.7-.47l-.3-1.56q-.16-.8.56-1.21l2.68-1.53q.54-.31-.02-.6c-7.9-4.03-10.06-13.95-6.21-21.44 3.39-6.61 11.61-9.21 17.45-3.94 8.46 7.63 5.75 25.08-7.06 25.95Zm-.282-2.78a11.69 9.47 90.6 0 0 9.591-11.59 11.69 9.47 90.6 0 0-9.347-11.79 11.69 9.47 90.6 0 0-9.591 11.59 11.69 9.47 90.6 0 0 9.347 11.79ZM72.5 265.19v-21.13a.56.56 0 0 0-.56-.56h-6.13a.56.56 0 0 0-.56.56v6.9a.56.56 0 0 1-.58.56l-1.38-.05a.56.56 0 0 1-.54-.56v-9.35a.56.56 0 0 1 .56-.56h20.88a.56.56 0 0 1 .56.56v9.23a.56.56 0 0 1-.49.55l-1.38.18a.56.56 0 0 1-.63-.56v-6.9a.56.56 0 0 0-.56-.56h-6.13a.56.56 0 0 0-.56.56v21.13a.56.56 0 0 0 .56.56h4.91a.56.56 0 0 1 .56.52l.1 1.38a.56.56 0 0 1-.56.6h-13.7a.56.56 0 0 1-.56-.56v-1.38a.56.56 0 0 1 .56-.56h5.07a.56.56 0 0 0 .56-.56ZM189.5 265.25V244q0-.5-.5-.5h-4.62q-.63 0-.63-.63v-1.12q0-.75.75-.75h12.73a.67.67 0 0 1 .63.44q.67 1.82-.85 1.86-2.22.05-4.43.29-.58.06-.58.64v21.02q0 .5.5.5h11.25q.5 0 .5-.5l.01-7.66a.79.79 0 0 1 .54-.75q1.04-.34 1.58.14.35.31.36 1.14.05 4.83-.01 9.64 0 .49-.49.49h-21.91q-.66 0-.66-.67v-1.16q0-.67.66-.67H189q.5 0 .5-.5Z"/><ellipse fill="#fff" rx="11.69" ry="9.47" transform="rotate(90.6 -43.573 208.97)"/><rect width="20.76" height="3.26" x="93.5" y="253" rx=".27"/></svg>